<mxfile host="Electron" agent="Mozilla/5.0 (Windows NT 10.0; Win64; x64) AppleWebKit/537.36 (KHTML, like Gecko) draw.io/26.0.9 Chrome/128.0.6613.186 Electron/32.2.5 Safari/537.36" version="26.0.9">
  <diagram name="Page-1" id="bNbPESsB2j0x68XietpQ">
    <mxGraphModel dx="3573" dy="1424" grid="0" gridSize="10" guides="1" tooltips="1" connect="1" arrows="1" fold="1" page="0" pageScale="1" pageWidth="2336" pageHeight="1654" background="none" math="0" shadow="0">
      <root>
        <mxCell id="0" />
        <mxCell id="1" parent="0" />
        <mxCell id="Pv8cgQ9Iaqcld1MLqGOb-1" value="" style="shape=stencil(lVnLctxGDPyavaIG856z4/yHqyxHW1Eklyzn8ffBZDNcTg/Zsm8SFyA5QDfQAC/hw7fHT18fLt59e3t9+f3hr+vnt8dL+OXi/fX58eH1+mZ/XcLHS/jw5eX14bfXl+/Pn2//f/3ULftff7z82e/w983PqzjXvbz75/8rSXz878qvN4en6/POQau4jA6lEYcsAZ6QJWfiEKTAE5rkShy8+Do5BC+aiIOT3GaHNE516NDEz28UqgTyRhYjP9lHT4NaROf7RwsRsc+S5pAmO3Bg9qqzfRVP7JO0MNnnOJ54Zj/HsziJ9P3DHJ9iGCIJK+LmBFe7P8Gcna7M9pHaN0nz+9QimQHIWDMHtDnxSiFa4uxgGWOsidLmV2obLY4ditT5zM2I7M8djPl1TlrLA+bHDhl5aQ6VRMlYWGaYtkJhGtrikGltiQaM5dCREDNZWBXz0EiUsp1hdqiNnsGQv2KP5aEULC6ljjAcgztImtlZvFTyhFolzfTJmUbJYhJn8KUmjWTaoq4zllKQwApqljZn2lKphECGHChJUUcROXaoS1MweLMz2BNmigalfaoVrKp+g+NZlODQ3hJHymSLo2sMB+u+jUDDEufnKKllhj3BYfu3SsXyYIUxpplAtNIb+AGsefSKY3uVCK1t5PGMPXVOQpBGklaCxAL2jnWqiq3W887sUVpwbiZrzR7eJ5P4xzZAfI+Pkvub8AjQmoccOy7BSTKU4NEmjptCxdZvAGKt8w75H4SoNTYPEC2jxJ7KwTlE77CmokBVXu0SVnjvRpM4fiE8gF1hrdxJrYs94YCTVNCepcAtglypmnVLnXOUww7FUX9DkuEje6bGHVLG8pVJfu28ivasIztslx0/NJ4gpMy+EomgQyru7Zm0k7S8P6tZOrT0zj4wNYuayOwLI5g0wKfjIyM21nf5Uhd80nEO89WvEDzoAf4LxQOeV6kqtely4SM7rxvs29kzeeZwWuzxIXgzNgWMf+b8dWjP+QIivOOH8gVVjeGT1odY0d7R85aFv2xO+Vn7tGimOirY2TZgaWCR4VOxAfQdCiNkXk4QaYfxiyroXZuE1M4AMk4d5aTpCJ1BUegRTKcASCPFUFx0h6c9Ji0rim3xdarj5iLqRhc/1YkN7Nn9TYcWD/YME6Uuyp5ypvqlqdIaVBOOfCbcSfz7TDnHx2YftmGxpgfxd5Q0LYyd3+YQBmjPpqsKsqCMM53Nb3ntA2x+28rCbpPJhFNruDwIypnvltprU2tih2h4CJuLmThry0BjVFI2U27b2m3iiGOZdZY5gHbW0RGPsdRwZjI2sQbYt3kAvkQVkbEHWpTNmayFFOv54PDORjbgFqfx7YEVJCCEAZgxLpbFodIVYthU3ObQhlI629dBzdvh8WwlmBUfwcbdrsyWd2J1rM96iqemFApDS+92iGz600UOtkjluL3wXIn71oXkoSAd+gaRL/fBPtGVwAIkwza7f0Q5VTLlQhyFfbN3YyA5htFYwGxsjjRjET8opUIrWByA2eyNaQRzEdVUTFTu26+gRBxlcsGPPX3RyModUsB4xz5O6KKXOwTZvKiYgY4pph8DHtnzlGlaRq5AC4XRGJ/gh0A8LhQOu04vHayyLBX7PQfFiu05jvr9AjqwOf++5tkfmj+hLVFi0LCfXUSHRrjZHZbEMSx1h4QOlT1Bx65khyX2rfG+3No5sHrX85DRgR560Z59acpf6ec+iv+Ag/1x/wb/5fr0dPuEv/8dv9nbpdv3/vDxXw==);lineShape=1;strokeColor=#000066;" vertex="1" parent="1">
          <mxGeometry x="-425.01812569728736" y="106.20701036638957" width="145.06074995869767" height="96.61557065786178" as="geometry" />
        </mxCell>
        <mxCell id="Pv8cgQ9Iaqcld1MLqGOb-2" value="" style="shape=stencil(lVfbcuMgDP0av2oQAgHPbfc/OtN042madNLs7e9XXi9NRVzZvDm2TnThnAMMdPe+f3zbDd69X86nl92v8emyH+h+8H487nfn8SJPAz0MdPd8Ou++n08/jk/z77fHKXJ6ej39nP7h94zLBTBPKO/+zG8iMP978W2OP4zHz/EJCFU8MqRkAlxUAM8QgglgpwAUIFslZYhJAYIHjF8DCoLTGSJBIANA4IMCsIPkDECE4jWgQLBKyoA6Q8p1bosAdK5tonhIVhOycnqlpUpnzbVAbjKkWuUiYCqZNSBDMjIwAemVKwWS0XVI4Itm33UOiwhCCKVN8f/N8mCFftQ24bPRNWDTNNsJAJueA5DRgWtbFvoWa0bAmnqyjmzUj1Sp/AFIJpFEv1FXlLmawnJF2KohR4gGL6KowfUA0od+N5Z0/byxadFKo56VsU5M1hlW1k1olhvi2cQQvWftGSvMyx7oRp8WtVmctXEAWzzRA3fqk4GxTZEMkxH9lBt9WiaDDrARkG1j/qYi2yd7jbg3Huvut3FrCOA0U1f2Hq7j27q5de6eiK04V/Zn9BC6TgACKF1nDLzlqX2KERJlbWH2MUl6Lnqoodr4cnxs/YjAGf4lJGK9yMISQ8mySyU9IQfF6FdkidjEk7HGIVYjucZbso8Bku+Il5NCLh31JA+eO/pNpf7dtnnm0BLIXi85ozrt1ba3dx/LV+Pl4XoHeB4Ph/kK8fl7e2eQV/N9gx7+Ag==);lineShape=1;strokeColor=#000066;" vertex="1" parent="1">
          <mxGeometry x="-357.5103510733827" y="126.69176251595775" width="5.420665525671666" height="37.25233771787441" as="geometry" />
        </mxCell>
        <mxCell id="Pv8cgQ9Iaqcld1MLqGOb-3" value="" style="shape=stencil(7VnLUhwxDPyavar8kh9nkvxHqgJhKwQoIK+/T08WT9byTi+kcuS2DO6xJbVaGnkXLx6vP95f7oJ7fHq4+3L5Y//p6XoX3+1C2N9eXz7sn/BrF9/v4sXV3cPl54e7b7efDn/ff1xWLr++3n1f3vDzgPOifgEF9+vwICUJ6c+TD4f1N/vbo/VJNNr1zm2vL5LCuD5K0e313knIFvC85WlAlFAtIDFAllgs4PnJSUBw4v1kA7EZTrIAPCFHClVCsAAlUYhBYrOAWgkgiy+vAjTRaYfcCDGC1MlLLROA9gMcARiVUpWcRoCXRADqJbgBsFhF3Korc1ZApUfSbOMQkxS/DciuE6EDQusZeBoAIugIKJR8udgEAiAHkqFOXLKAQNha4rRDlkrcWnJnzgpQaYR8FSIwshUpVYlq1FVUVgDIR7xUcWKzQ5DEdmiSzQ5ePDG6eWljTvvW9zwNSN2JK6CIksC12Km2HqnSFMWR1Fm3sh1gtKvWaCU21GrLCdzqOMC5ya0scPBJtm5VIjMAGBFY3EroDWq0MdJeaaQXLo057QN36wRoXTs3TzTavNq0abKRYv7+0oO6BkEK4dEStPH9vufrJivGVHASz9BOzXqmwnWqVXg/iTDyoIz+116wT6/XyV6eBq3YA4FCjVjsnbN5EJ00dibo0Zia6mimtSloKC2ZKF5DyzAaUVDbSKZBwEwnBlmOTI8guSOgOVp5EOgyEhVWKWdqMzs02vYA4HUCsCMVidkeiRaS3Mv3CkAjxGzIEsyR4DcuF26kN6xiDe4CGCNdExeY3PuuFYCM4xJpNLWUzq4tt+Yx0kV7LdoKnOES2HqGS9FbQGGqgfwyKpxpIQEgG0CTxFsG04khgTxLUW+7+kX6mQhgh1GJ8YSmqOu94xFbHTuSszIDMaT0bhO9IW2MfNV+Uh6p5yaZvN2CGbHQ1eQoSjZrMqZvSjRnTFyXlDORa/S7eAEYbqgoS4hse+h6pnfLtoculfc907c9cpQaXbpuvRAAMsUxDjnTzgTKqKYqFqrGqFmGGil35dkCmF4sqhRS2pFgZodwJtJvPfS/9tB8/VsP/T976EnnHa8L0a5P/WN0q/s08gVCZHYgNGLToIS1eihkaQTETAclEJdgpkOFdvXwaRs1O1Zqw5xnsXX12Jp7mP42IfX5ZMUIZAq0KqDHadPgkLXcJfYe50hRWYtR3JRphY/Eiu3cUu1fHqcBYRL5SqmhzQ7dlGcbqoxht0aqd/h3GdNNIZBEgtXb/ASgkYSDic185PKxXpo+G7T2Qd/WxNd0SQAUNrWeNAaOdsSt89QaOzCVn+fiZwDz5B1HYnGYZ/sLWV51e5BX6Tw9C5h6ycyleL4BAYDlw3zHsoylmQjYRg82U+7ZSyKsZ1Px6RIK6xM5zzp5PVofyHmc1ImoTMOcnZMidZS+3/hTM1VhZ7+3NZ15v2nwNPRByAvXu16JXnae1Oh353xHx9vByZ/QGv5+E6/EB3QTH1CjEkni1156nl+PH39vWK/2NzeHC9rj/9sbWTw63ObG978B);lineShape=1;strokeColor=#000066;" vertex="1" parent="1">
          <mxGeometry x="-254.92257896707383" y="132.98136188545016" width="114.2547597900791" height="22.79245355339117" as="geometry" />
        </mxCell>
        <mxCell id="Pv8cgQ9Iaqcld1MLqGOb-4" value="" style="shape=stencil(lVnZchw3DPyafUWRBA/w2XH+w1WWI1UUySUr198HzBZnhz07rfLbagTMgECjcfCin348fvn+cEnhx/vb6+8Pfz99fX+86C+XlJ5eHh/ent7910U/X/TTt9e3h9/eXv98+Xr9+/uXITl+/fH613jDP1e9qJLz0Erh3+1Jsf+f/HpVeH562StESbYqZNF0rmDS0ipfpZEPNCl1lTfp5Vy+SlrlU5SWz+WLhNUefxKJ/SoWV/lOz5vE2iKvKj0yeQ2rvEllAZC+njf7+4k9Ee3JXUJg9oT1/UWldSZfQd5Eif1Zgi7yNdH4FrG+yjfJyvBW1ni1JLFRQFdQqGLEoFgkrRGzIMYi1qWWVcFBSCDqPiorRs1mVtzHaJC0nqF72ImTtEpco9bzJIL7UUvT6ZtClUBg4SiL6xl6k0hMKh7og0IhgXPcVEOFTDKhdgycn4FxXSvzfTsvdZI7FiXCF9L85n2FzYm7SFcShx4kr4EzTyhyhu78tZrU/AskcO6TuLrVE6gRt7rXK2S0v4J9wSaBbpTRJbMzuMIK7+ImEU51k2zNuLyd6uzQwPLa55P7CmWS3KaQaU57HNoaB2cqYwrOS1CoOBGbw3vFkhOPEtZw8OnqJac2JSZZwhQd5Em+MKAGaJ3wvS+vM6wblGa1vp/RJgGKG023urHiFrWZsGecFNYop4n1+6RnmP+J1qp84ItEKc8xpgrynfjT3R0KnJcR3jAX8kaUQC42TJtCM99bxaQg33ltbkAt0khp7piURktOR+906n2bfdaG/kCp17A+uXwhnGIzW3fyjIOa9I7ynaRvw0ZnyBP0N+ysXZ51pnXGcievxP466ezmftazVOSGPjvnM3GkHgYdN15BPDGmwlaizTb7bKgpIM54pKExm/4ZcNCYSsUrvr3ThhoacJskdJZUGcRpmUMG75RxPAeh56PDj8f8CEmasvkg36hvoMkdKUXsachnQ54CQY/2UJyFQ8pminrLKM+Gw4rDPG/cKh7X6Gl/UtzHKiz+lfjei0kOIM8G/6iINaVDWDzwa6Kx8n/jJoUWw5GmECyJJLbeLKTVP15+eDMCzU6QyEbCrbje5Bl2vJmCmTPwZi3hpiDQwcWbQRhR+QzcMtY3pXNO69gcVVre7LA56tR+azj1f7CK81mwAiDa5OqzGQTIdvSbrJ8q2K+NOkd81A89gOp8xdloB/OsD16s8PY+QbxlcaEsEcMGy/30SIDnn4DGyudTWsPc5DUQPgGzTmyMzKuCTz6U6goSuwXa/fj0iHuCSudTO5QChxcLtUVsI3qm7W0rSO/uhsQSuuN82vnqsiacsV2BrfKckhrWP05iTnpAwgOQ5BM5IUsOyJNTa8Gy5klF60ifLLELBJtqB8+BXwPtjeNhh+9cxb7gc16EJjBRMN3ast2WihXbhrWkcfLOWPurUXkfhGERoXRLvU1Suy042wkHZIzy0fuBwwYQCSgC3nJkpcUnYC+iRnk7YGPtPB9J8h+W7LfW+cT/wBVJ+X4aR/mxdCf2FCmrP2Pl5IWA9trc2G4Nb11imhaeJUA7dO4MEDHhPdDIIeKhqFjLPxjPR/dx2Bco29bonTMUlvV6Z4PBvDp4Bb4QZ2E8XTgZKrA7gnGZmVGBLWHiYSXnkUlcAdcq3oTxpRkOmYl2F1FxfRB5ExYPu+lxLczA99O3xh8r+I/bJfW3p+fn6x33/v94qe2Prhfi+vk/);lineShape=1;strokeColor=#000066;" vertex="1" parent="1">
          <mxGeometry x="-111.12952125409947" y="86.10432794225073" width="147.9827371107085" height="102.80685525453043" as="geometry" />
        </mxCell>
        <mxCell id="Pv8cgQ9Iaqcld1MLqGOb-5" value="" style="shape=stencil(7VnRctw2DPyae8WQBEmQz2n6H5mJU9/UtTOO2yZ/X6g3VMSVtNc8diZvZ3lBAcRiAVIXfffl8cPnh0sKX95eX35/+Pv68e3xor9cUro+Pz68Xt/810XfX/Tdp5fXh99eX/58/nj7+/OHBbn8+uPlr2WFrze7LFEXoxS+3R5EMfv3wa83+NP1eQOPQVKc8EFMCb5KR3wg67s/pSA+nONVJSjiyzk+RymIj8T/4vGiP4XhTSzBfmo/x1eVNu9Pkkj8r01Kn/A6EnKIt4zxdqnEHyu4vmew8hf0+QWewkwybFFamyNQsUxCdgqFySAnsUZy0KXbZFCi9EoMosTZpRqlkhicRX02sCA1EZp6VucYrEsieUhriMOgVSkkhpilzUF3d5JsaxtpXfGFpiGL1RnfaCV7YcL6XSIJIElWxCupfKdR3q3PlGustvGfKV3AwnQ8U4ogeS78bpIIS8Oo8xVf7+AD+F8Ga/8jPksg+XV/YD8T5Y/HC/sThxKc4K0jnvEnSgI+rzt8xoeE+EDwbbf/vBPEtTw2BoW1sjri2xg0VjFNcthtERO6XTO741LNoqAqXYy0G1tFZzVwJ4lBW0m80S1Go4Vlc96atyDScLxMgHgeAyOSGwRwyUaDODYo0gvGYIRKyxsUY8hE69xAIYY8npwZ2MylpoMsxwYmColLo0CODRrqtRtUUg9uUMvuDYQars9JdzGwPPTRhDe7RIPug2pbLrGmGXYq6aluLOo+YtwUBGVflwJv6HTCcwN0qdPpxRMBRX1HKZ0btpMNmgjD6WXRSk5XlI0+nDwziIbbqizogjOeF3VkOlNwZHNuMDVe2jHkIdOh0A0qGCg3MGxBXkFUmAx76FKjjEsu1hkN2HFtIV/BGBLjktM74y4FlrgfNlBRaOxKybcMyjBpuLiSoL3J4WhSaMV5Gy27WS8Tl7xRV6g43kYPRoE+DqKnw0ZFg0zqYRlnEhpUUqINX7ARz58HgMvPA8D/7QCgu/mlj7I+lgnMr7eoyPzRA6UzohJLxHMFLJcE7MAQhq6tBuvlyrHBbkCqa5UeH/obXkMUpWNkqdhms9KeVncyoZnGUA2FKBkdqGydVVblMlr4/oYGUrdqzVkMGbVxTExnt4QFhm0acwl4QdWo1C23nHOe+YlnuUWtuD6T6ryrHcnEf99w8L/TW1rfPhilOp3Vdv3YF2i0NcEBz/FG4lWUOsez893uTNvHLfgJHMeJO40yIXkSYWcaqv+dC4m21T7LdKXTVsLDdRln4RM4NOF8Bw5zk9JSV7xxSTRNLtCz72vsJyz7oU8ld+H+4/tXmU/Xp6fbR53t//Erjj+6fQHS9/8A);lineShape=1;strokeColor=#000066;" vertex="1" parent="1">
          <mxGeometry x="-64.14317847572738" y="115.39403472617732" width="68.06762662390793" height="35.10080098131232" as="geometry" />
        </mxCell>
        <mxCell id="Pv8cgQ9Iaqcld1MLqGOb-6" value="" style="shape=stencil(7VnLUhwxDPyavar8ln0m5D+oYglbISwF5PX36cnWDGN5pzfccuA2LOqxLbVakmcXr17ub572u+BeXp+PX/c/D7ev97v4aRfC4fF+/3x4xdMuXu/i1d3xef/l+fj98fb099PNZDk9fTv+mN7w64RzUssECu736YfkJevfXz6f7B8Ojyv7Iq529rFKbdv2PkhyPaBIJAv4JqXfUUwS/DYgVPGhB3hpYRsQVXx/htAk1G1AKuL7LcEN2W0DcpKcekCUFolX4XSzJS/KACqu3xL81so2QBHo2AMWv50HBNHWA7K0TFcIuQck8ewMVZwBeEn80CbSHmuSOJQi2ru1SSZkLUtYZ/vKo1Ak9D5SKSx5BiIVSRfs+wPnS+f12qeCtETto+9pJ0pCPPnHkEiUpCbsa/9+sJCdFwHOxj6weKnkYOwd849Kc9ae5AAYGtTYR+bPJQff/JmJsCDHWn9elcCSWK1MIMWYctUozgQ40JysddbalTYyirYg1eh7ppxo4FzPoeRo0rQqpRfTlCgrvFtYsKRNmKVmc099Hhe4iSzRUGEMoNCaU7FCvyXE3hMqaZPaUxvBLyRyGq22VLCLcGNK5v4MVbnauXkDi5p6KWSFnAdAnvl4HuBn+VkAS4afr8xVWk/X1mgcADAZNAFY7R8kAAAlGgOAG7bkGUCtSILxgVADAHXWS6xDOgMoVAWmLRlA5meoNuMacpStUGehWwBRyoXAqQVEDqhtALBItznlVwAlwgRASvbQTCsBKN66NRKZmQCGrWgYiJBNgDGBWBzQEA3ky4xLzbY8oHfkgDEfKg9cMY2n42UdiDjkaOXsc+MhLiSEDm5igVikdB0Ixg21p55CzbiBFUwGZdo9A9D6igK6sikGXvJDyinbUp3p/68p914ACoQp1ChBFJCtzqDDqaxFdAMg0xXGnrt6Kkwo/CbSikiTDNIh5d6GufPNRrZ6X1B3CQBODD1b86Jt5wGDWzOXPrDfSF92lEtYwRRqTOGNN6LO9JWBtonodqK5yuA3E+inzDQWGtVKHTosdN9MK9VL7SuKL7Syf0zEHxPx/z4RG/97el2IDAg9P6G+bCKOQ4ckmdknO1Z51FE2h0WrEmAEq8s4gektQqKTHkJgxHe6ZGWAYUpCkrF6AG3WnnTR0Xk4DTN6DHNjuXWlGnvhimhGSNUMA49inW9lt66F63BtwDowH+zwiXpQWWra1iJl2mt7e4s8taEkbG6+AV7bk9R3tk2YZiaSys72UlPTSvbvbKbBnvUtbh4ZVwW5kFRzM4lX/mx0/2aEhL0jjFiEan0tRPfjzfsjLTXOpiX4o3Q/yVt7VrvdPO8u9p52RO/9UnPZHg9vn4XuDg8Pp69K6//bz0j46fQJKl7/AQ==);lineShape=1;strokeColor=#000066;" vertex="1" parent="1">
          <mxGeometry x="46.18583310397207" y="112.65146959372885" width="138.79780857808692" height="41.26000702727936" as="geometry" />
        </mxCell>
        <mxCell id="Pv8cgQ9Iaqcld1MLqGOb-7" value="" style="shape=stencil(lVpLch03DDzN26L4J7F2nHu4ynKkiiK5ZCWxbx8wrzgaNmf6STtZAjkk0A00QF/ipx/3X77fXYL78fry/Ofdvw9fX+8v8bdLCA9P93cvD6/20yV+vsRP355f7v54ef776ev139+/dMv+01/P//Qdfl7X+SA19lXB/br+JhTJ7f/f/H5d8PjwtFugUtts3yTlc/smDvZX0XpuXyTmyT4GSXpun8WBfZGQzu2T5Pk8sYmS+ybx8/4pSAnn9lGazvZ1eODEvsz22YuS80fJYbav40bv278Eun+SAPaN7p8llsm+2g7EP0Wan+1VItm/SayTfYuijuFT5/i2KtWf23svcQa0OnphYwzcQA0RxKM+S50hpIlewRtn0rwgSyYcCH5QcFtQxJM7WBQgyrYgkyMZCX1avkDcGlWcx0sXwvtkR8ro1sCIbziYv9CaVLKgeAxcSyOZHS9QSbDAoFHOF9Qi1c3g5snIsOzmONRAA2dX9DO8y0aQYzrYpWe3lkz5aWGKc6QtYURyB8MmXDqrNHakginYUlgiWLIFCjnSsERqjlrKnTltSTWworZ8wbK2Z1mmDMrvykIk0DAvAfhipZzudIFCxRO30UXXyszc6pbSz1OrgQ847VUC+ULn1ww+n0Z5PF7gsHpaenYES8avDAQSJeg2esEVMkVSMUZDnCkuLMegHJFA7A3IOpe3rbocZ8mF/7z2JHOo+8D+MUoqcH4GayskHohD72uAyRX9z4ptQn9WiQzTkudwcXFnYnP2jncjmZ2JI8CzpWsCt4DR9UUSCVcYiXOzr0MKnNiXgPaZ0CUs5ze6kPAuFdOkiSf89UPK7exZsTF0FrR35DwO0Wnnr3R/v/gzELg5ceDPQul1ZM/E/nqeTJun9b6Jxmv1p1URJn4lBrRn51nxYPaEXyveEhXjK54zVZkrX3g6OeIjw0MYxWRn34h/wkDjDm+J5BPTDIr2bH8/or/nI2s9Ruu85yO1xwLP93dYfW+c3x3kH+Yfh9m/+5/z0aH9Db5/0B7UgPeUj1vx33qaQbiTXjrP5o2ivyGay0gXx8GNWHs3eXZWqwMoUJrc7PPoTTpJMq0BncYmSM+0TC1g71lH2TDbbuE+9n4eUnO3P/GnaT1QD7w7LHWI5Z1/yHlMq9YK/vckXrViT5KpGGgB0dm4/C9Deu3Uj7LRn45+fC9PWFdl+X+OcM+QTO7lRQ7X0VG/s9GLfgyMjhc0LJGxUAWtigOx5OnAUxWLWCpUtHq3pC1rbzM/E+StzKFht4bClxtvPhfs9WkLC3XGxqSYlGBHilibjE9MSxv6oDWpjk6grFuFsVtNdBLYCQfjnkbbBztAWIaZjvUniyBqdYwrz/rJMn9BPVVoaSuou1kjyzJRJc2UUz5gjQEZ9EaR0+EkdmU8c1sihTRgn2CZ6a0N2C1gmcl0KzxLGEUSnxJDslcuXazzLMuUmCYahLcGOowxZQZQ0qGuznpjsM/UPuFDQ3N0sL+OPhNNMZZP5vFWUQoKP7TTZh9vaNm6TCVZUnVITUvCbOxp4gAekngvsWjrFKgadDgOjxZxhlDcP/IEHIc3tlKrVD4u8/wuT6maBXVhiKLn98jh3g4y0ntM173fJDfu4l6XBaydDviW1BewUh5wQNrvwDU8TLZviEK/iOweSObW5YGxT4XZHeLwyS5wDEiHC258AaGXb30B5lC2gI2Fu1tBeBb6+PThZ/N3LLAf3l7pvz08Pl4f+fd/x1d9+9X1fwTEz/8B);lineShape=1;strokeColor=#000066;" vertex="1" parent="1">
          <mxGeometry x="199.3949632769718" y="73.12863427733089" width="143.03265090116892" height="112.07111450252208" as="geometry" />
        </mxCell>
        <mxCell id="Pv8cgQ9Iaqcld1MLqGOb-8" value="" style="shape=stencil(7VlJbhsxEHyNrg2SzfXsOP8wYDkW4liG7Gy/T00Ejoc9mjIc5JbctHQNyV6qqzk7vXq+v3na74J7fjkdP++/H25f7nf6YRfC4fF+fzq84NNOr3d6dXc87T+djl8fb8/fn24my+nTl+O36Qk/zrjoJZUJFdzP8y9BnP/9w8ez/cPhcWGfnGgb7J3EtG2fmwRv7J3bti9V3Ph8Lzlv29cqcbQvksj+mxNvnh8lV7JAFh0P4JsksqPS+oZnj0ZJ5MhwURwBik2yGNT+9wxIksgZIpwaB0BE1Mo2QOFVA0jiIwE4aWkEVKltGwCf1DAAEk88hKmMh065p8plgEqLFuCJl3ywbgUgBwJAmJwFVOLWIq1Z+0YyI104QSEbijbMsFcStSDRHDhJYR4Sn6y9I+cFV+hoHyUQspipYbZXUfp8P3IXciiSlHBSjX9ALmQ/Xpp5vqPxUstFsA/Mn0WKKTMesNc6nwHIckJGcEgyKwQKyFhBLYDxY0FKZrslR5IUDKyjV2MRrwSQbMtB2CJbodqeM1U+cWsDZY+Hzr6z/kblr1I1o/RJamAJP7qpBAkMUKybSqHJ1KJNpup7aC4DfKfDGZB4K1RLkHhEIvVTfKerGZB7aC5nn5MyMgxiyc6g2Z4Bjm6EAjT0trQAMIGBzubUbomRAFjeroAyZ60QXaZZLzFNBYBhAZQIK7lJExm3KiW+0LpimQFgVpIacGswXgK1ciYzogcAlhqQJIa8JwBZAbxlA+d595yF4OLQmWwJZJ2CdWtlgFVNI3CepMbEjKsCYpIEMq2awJUuIi4DtIvZRT0wHQblaLgSAOZWLSsB7fgMoHNPWyxR2RJoy94CmF9DXeV35QAItWoD0YibADBaAKFmUwBq1JJrpPoWZ7BcGXqJXPaS7+JrURCVFXUUXQGUBa6s+N5Tyf1uwNTITfY5ygK5iDNNLtNDF7X5Xd8QQNWWHCSRZyOrsz1r6pOs7zpJYy7hVIwrMYKa1Miha6itM6hR3tBQpOJK7DS0kN6ViDjoymq0tO/TyuVII/vzCkB6FojJcGXiLSisdSXGDRK4P5oogwX81Ymyriam/xPlvzxRln6tM89WjV70+NaF4wyIXdRsitUxwtHRRgihV0e2U140kDCGi6bGxXI6dhfOF26pj0KXuQhUZW7oXJ96t5pINRIm856wymtQgbIVspVhhV4yTmXrjX0g9nE1lNQ+dGwFwfi00ihDRtZk7Rmv+LV9If5Bkpk8rfyipNrxolAe0tl9r/aMh5DDRkBisOX2wXSCzpRb9tFcw9BJW1eDglJ/wj/mvEpVv0JR2NcE7Armva8V3rbHh9d3GHeHh4fzK5Dl//adB346vy/R618=);lineShape=1;strokeColor=#000066;" vertex="1" parent="1">
          <mxGeometry x="228.21989487458677" y="99.76519943818607" width="30.677669205730556" height="72.60125512975598" as="geometry" />
        </mxCell>
        <mxCell id="Pv8cgQ9Iaqcld1MLqGOb-9" value="" style="shape=stencil(7VnJbhsxDP0aXwntos5p+h8B4jRG0zhw0u3vS9XQxORYz/WxQG6TCZ/F5XERZxNvXh/vXrab4F7fDvuv25+7+7fHTfy0CWH3/Lg97N7kaRNvN/HmYX/Yfjnsvz/fH/9+ueuS/enb/kf/hV9HnKfcOii438cXpVGof998Pso/7Z5P5CulrOWZAs/lfaJiAIWamwNCJO81QH4CAGKgagCeuM0BKVqbM1MEJ2RRIGhAohjngJKpRg1wlAGgZuKiAKkQhzmARQEDiMTghObJJQ2Q0IMTWqaiT4iNEmBGi5ScBniKIA7NkdNeChmewMIcAxCrsJecDpyvkEu1DY0XgNARpQNT1UZ7oSMwWgA+W4BDKonGRiUHE0gAUUe6Uc5Q3mt5HnGZyTvW+UYJy3stn4gTlE86aHFwfSbPOgTiUCQvBcs4dKTGTN7kpoPJLxxKbORRgNmRD1YexEvkTXFx48Dz8tmWikwN2MuNvJbvhEOVIlgDfKGMK0WpOmKNGAOCBkSGPpVqV015ZKiSGJ2Nk9pI1FktMo2wShgA7TiS0zawh6VF4hw0j0TJhkqLVAoNaJUqYEbPZK1SE6NRaSkUgwUwqi2ZsreAhpIzWXILIAHyCcDawHiAke5vvFTGiDIDWKNFSaTSGhBGZP5VJclxpNLK6J602EvGrVypIZVWgRMArPIragjgQtuxNuApbE1vMbogo3mQeXGrDCS4mZsy0y60HratTaYmNPL0XmV6c6WAm6FpVkJvSL6y4lIb1XYW6aoB3uGGJWRq1x2RVn7lMbPPEqKGlZsQ+yRO60DglLN+vRDqOKr7KZkwgK+j69WAYodVDphMzd4B5Ew0DkuHajoORboY4He/luiumAO0QdqomdDlHpNQ312VjZgh+eQEk6PhgtHBXnz8MjF+3AE+7gD/5R1Ayl22/gT696TRWVZgwZZKFbU+naBoHSFJZgBlXDvOA4RgmqF9UYSuAI2CnmCig7XrpO0tJF3mrJlOXhuRFh7OriWmiaQ2Em9WT6tZVXkY6N4TtA05QUApNvMzwyaS88ishRphFIPz67Zk3VoWv51f6K1uSqXB3ZYwIWlADbAn+GT7mkxBcM1j66/4GQXa2zFPChRKBz+q54k8o62q3ZyJfAbyzl64ewEH9cXZcarzCuS/sysD8Se6ta02fzIiov6xysz3gW8mvyJEhPYGEy+8upRqa/jgxv5gIs9mRS3XYOBPT361lUeb0Wu3+Jfl5eH9k8HD7unp+MXh9P/2E4O8On6eiLd/AA==);lineShape=1;strokeColor=#000066;" vertex="1" parent="1">
          <mxGeometry x="351.33244101082164" y="83.82363776089346" width="97.14286222101317" height="38.444160834594506" as="geometry" />
        </mxCell>
        <mxCell id="Pv8cgQ9Iaqcld1MLqGOb-10" value="" style="shape=stencil(lVnZchMxEPwav05pdOuZ4z+oIhAXIaFCuP6eEUabVWvdgTfbO73W3D2jU3j19fbdl5uTd1+fHh8+3fw4v3+6PYXXJ+/P97c3j+cn+3QKb07h1YeHx5uPjw/f7t9fvn951yX7p88P3/sbfl5wUSW3jvLu1+UXr+Ldn1/eXgB35/sdIDTxdQY4aZUAsoSMgJoJwEuNy5HSdYCv0nQG+PGfx4AoGY4UJQQCcKJlBhTxeh2gWZybAMFJIWZVLwoAOyQxa5U0+80c8/eMh/JJ2mzUGEUj8YK0MMs3SeQ8XvJ8/pQkE5Oq1Nmi2X4h77ens49zkcZ8LH52cQlSGtNX57AulTosSpzPX70UYn8LCJBPVN8iZbZ/rdS/Tcrs3+ZGRF0LOD8btOl4xTEgSQJAkOQJoKHLWhLH07LNPmiZ6hxU1COgMScXqbNVW5FAlI4J3WaARMyavKQFwIpXapiYpkMkgWFx7+piVmIlC/yWZoAf/3lcWixy5tyxWGJK91CG4C4SCaC/DwBWjUi1aFHc7Gk7ZCTBZ0YMkM+WgcQP5qY8H6no6HTHgCp+PlK2DGE6WMGa/8F875iVyrDJBrAuQcLbAiHNjrMiz4pkz+DZSqGOOngM0HGADWBVgzRCq1oB+EXigDT8uqMLmShdl0JmzdcTQC/ss9K6MY5jQJQKZWbE+7G8Ez/7zWoGeX+OSHjMBkQ+1eHUzQnSeE3KwI+kkdyJW6Y8ywdWVdviMlouQhAHQUQpp5kvQliP5D6WN3cCF5FKUl8XSmtNgcnnwV+3YsQ7Z0QupY5zozge7wAs4gzgGwIYKdeAXacD2JGCZI8AqnRA2m+AyCjzFgQ7ACuPBlDonDTNunwDecdtFNDNmRTTbiIFecYtdKHYlTLy7uQK8vT8EV3Ga3sPU5RnLdYIoSaQL+z9Cc/f+AyVJDiQZxNRfz80AkdJhQGAVBiAMtqIJLvnJVMhjpDfpxmLoYil9yWATTWLDpXpEEZv2SvNM98vAGXlMWBcND76hoVujv559UBzHlc62ek2puzimr///+Qz1qFMiaNWjKIXxiKPFIrPXda9oM55cSRIg8dewIO6t3sH8mzSNDoB/uV13egK0C1H67qxaKgTKonEp9H0EMGerO4anatz3doK07F8GuH+TCdYXSwN6UTPeeLgGga92gBxtJ5jQMaxt1MeNtA1bAV930FsZBMlzPrBKA4btxLuZ2w2D0SHPkbPXoiR0vy2bAWTDl54DLAyNR/JiDZdSTmHWz6LLTZJ2F8ApSg20XGtYTQohTsiYbL1+YiZSbFFWbR4Uo7scYK23yibtUkdJuvmaYuyeSsAgGdc3vj6bulCdygOJ5AeLUSHPkLNCdGjhejQF0fYNXnZs/iH8Gt8zLQMw81RG/P/1bV3Qa1p51wqq9mVab0SpJbHluQYoEvv3xarV9beGBp81lx6c3N0WRZxlK28LG1L300+0PWGIvsqjZIFh2tmSw5H8n+tSIUGtsNlYtax5r0iD70qxbFdvLaGnxMtVuqviPaJnkbc5p19G2Eh7ZbdiefsNI6N8tYKK82ynjRzszWlKjmSPQaf9csOdhtVcR+ifDIKS/XSyjc6eRkSCu2dxgmBMyu/nok6Vla7I7GVscUBTBUdwDLZ4wbYAKxPxWV1bwC2N3oOzZ0flDWFhSUZgHXzDkgIYLdMceHOnZyTfO46RASwaScuF30GoJ3QI8HoF8bcrDi/KNdBsRG+cIf935fe/wCwD8937B/Od3eXK/r9c7yTt58u9/nhzW8=);lineShape=1;strokeColor=#000066;" vertex="1" parent="1">
          <mxGeometry x="471.843099717787" y="50.19225303396456" width="163.77768997731383" height="122.619360998034" as="geometry" />
        </mxCell>
        <mxCell id="Pv8cgQ9Iaqcld1MLqGOb-11" value="" style="shape=stencil(rVhdb9swDPw1eSUkUZTE5677HwWaLsGypki7r38/eoFci64vGLA3x9ZFFHl3pL3ju9fDw8t+l8Lr2+X8df/z+Ph22PGnXUrH58P+cnyzqx3f7/ju6XzZf7mcvz8/Xn+/PEwrp6tv5x/TP/y64lioyIRK4ff1TiFuf298vq4/HZ+X6yMpD+tjJq7bgNRI8gBIiXICACEOI0BJFQAi1RHAFZ4hNgojIGeKDAAW8ZgkYWoBACq1Ou7QKIOQLEtpTGuulMChcyBxgEIZnEESVReSwDqUTC37LKWyDajSH8+ARAp2aIXCuAMrzFKztMaxDlZ7cGgDpPHQJVBCOxRqOgK0k2ULUNsAqHYnwpDiuEOzLKGQ1LNVjXwI0LpcZoCJHJ1hRT6t/c5mlsY6qKkcsLVlrwdVEgGARGXcIYaACxG6XhZbKADURjF5QAIxWWFZ/KmRbZgg4igILd1tPwZkKi5NmRSYqwF0VJBx44ZGnX3r7J4fA6q3bw2U0Q7qK2cELgDQYjeJBYAxmdIKULConQvYGQRxaWXfU5YQXZv3SqsDI+szUbsdhAKSnAlsxaUbPsMuJGMrypKsdlDsldy77FJxKKRIQVYAUGmTqPcZsw2Q1rqy78mYkOKkN5yF9UWsuOrOIF0h/wnAPYCZ3gz1UFNvB4sWhPQwAUYTKK3bwhagjC3I2mgEla7ziLdo1GicMYCMhZtmBwRgb5U883ero6QxSzbpojNYmdqoh4Snk0WHmmOySRMcwkxCRn7b1IcK0VYtSAJVRKba9TIDEiRTWc0zN0ZdsZ41kklsgAd5tcK6MVFMtUDUHLyCpMHKRe59fEFXAaI2LmW/voCIVnXOCrvuquna9I5mdfVy4xvvJ2YZ7pWpYoDxyL3FKewm9tilKMZOxY9faFYuxpAV9riNNUtwGEvZr78RT/HTXoCjmCVQmlsf0UuoUsxuPRpXJ1L7eJBVcPJDDx7DmH03j/j/cx/S3tcjJzK3zc4d+yi6tV6dZiig+G29cwn4SvLP3zFurreL948mT8fT6frNZfncf2SxW9cPNHz/Bw==);lineShape=1;strokeColor=#000066;" vertex="1" parent="1">
          <mxGeometry x="556.6045313741774" y="86.13421729252548" width="37.34997295072283" height="50.659928219022014" as="geometry" />
        </mxCell>
        <mxCell id="Pv8cgQ9Iaqcld1MLqGOb-12" value="" style="shape=stencil(7VnLctswDPwaXzF8guA5bf8jM3EaT9M446Svvy9Yl7IISevm1kNuiswV8VpgyezizcvD7fN+F9zL6+n4Zf/jcPf6sIsfdiEcnh72p8OrPu3ix128uT+e9p9Px29Pd+e/n2/byvb09fi9feHnGecplQYK7tf5hQTi9OfNp/P6x8PTbH2hGOz6WLbX+0QpLwB+GxAiBQNw3cZVQIzk0gAoDAFJAaMPxRG7bUAO1gfWT8RtADsqfgDkTB6YxBrWcYdUiAGgBOt00j0RIFGRARATRQGASN4NgBCoMgC4/r0O8JEYRKlFfYySFsuVHUxp6A4JALhSrSPAE2OAjDtU4orXm9qD7GkG8VgYmG3q8ZiESALIo+vzaE/oIdtaX03OyKH1i3ahBoL4tDJ1Zr0DTNP1OdrvI38X3HckyB6tFzHx+dsL1tcX8ja/KD7ibafQki7AAeEVliGLqrJsLGk1SQDxayI/hjR6qgggFMYajYxbvHM2ywkTuW0xOpGlJ34dEKmMeWCGRNYw8ehEK0VQGVK6jxNAyAGvJVmn9U0AJsnCJKkwc9qy87hDrTBKZRGlWWq2+Gb437ZAhNPhbWwS8ohBvo+lCZBh+ZUFhTT5AQ0qbzPXOILC5G2T1OQn1IWVMAag9Y2jlI1KijgP6qLZQfdEYdXq8xZQ0OxM/eeZDssIkG2jafWNwppJzA5MGTXjRe9TQiQUpQWgajliH+w4Vx12xWnDh4L5kCzllEBI6ZVF21BARSM39qjPAAXxIXSLZxRlTKBqdmAqWAWYKa1DBo7pJUV9P0f8YxMQwWrVW3krmQrufNEQKGI+BKsllUAe5+GNACEZw6q5R62y9YjRadYxigC5N8YJEOBBRqPOY3nrQQZp+kshTFKAu4RdB3AX2NMOHkpWnQZubDMp9/a87oMSctwh+a4Ctya7GVkx90CvJ652UT5psisUzfYgczn1vh+VLga9H5Vwm/+vjkqpN4apt+AKVc1lCk77H3JYFglmSkiQsD1l6LEEAqJNQXZdgq/XqGpfc8+D5QL7rlemIOGLoRytzmv3MvhyKxkl6fp437o+iwaAE6e8SkZfeCiq2hWgmf7a7VApLUQYHs2rcgS47HsEZ+vR2dDZuaz2MLDfLewJvVdurA9iAyrw+1YG4/tLtzgrVNjqFsd5PR9h+53RXty5veWvqbjc32ysN51IJzTigLPzW6UdOiZ4y2IVagLseeud+fX1+nC5oL8/PD6e7/fnv9sLfX11/mdA/Pgb);lineShape=1;strokeColor=#000066;" vertex="1" parent="1">
          <mxGeometry x="648.7417466492143" y="86.50980774974971" width="111.07921025426603" height="28.957443961739152" as="geometry" />
        </mxCell>
        <mxCell id="Pv8cgQ9Iaqcld1MLqGOb-16" value="" style="shape=stencil(lVrLchw3DPyavbIIgs+z4/yHqyxHW1Eklyzn8fcBs+HssDnTKt3kNcgBCaDRAHjRTz8ev3x/uAT/4+315feHv65f3x4v+sslhOvz48Pr9c3+uujni3769vL68Nvry8/nr7d/f//SJftff7z82Xf4+7ZOxBXtq4L/5/9fipP63y+/3hY8XZ/3C7wTPy+oruTzBdXVPMkHGb8cyheX2yyf6f7ZtTDJq3dKDpCdT7N8dCmdyyfn5wvS5iKRj87P+sfosp7Lq9NZn9hclXP54Eqd5FN0zTP5WGb55hK5n+DCrH9W16g+YbZvLq5QfWD/Is4T+5r+s32L6UPuM7g861My1UddiZN8FReJPmZNmeXVVeo/ZY6Xmlyj/u9ne9XqArl/i695/2b+H2gAw4GbmSSSBYoR0MwChSxILoNKyQm5IkMQFVzQyBkMQuIcBC1To61RbAsKOUNoGMa2oJEzqN0JLCgDaY4XtAELuy9UEphx85vdAiGRkMII3G1BHMFxDI3eBTBccEpix0I9zSrVNtLDsXObAhBtacT3sXd7VyEczPbk0DUjHhWzA7lWC5c0H7rYvZF4MO9PgJCVeqs5c53tkBNXKQ8FtgVCMcxcDc6QqktMpSXLpkSzWl8AaYSjhi0A3I6cJ/RDQ+JMLjCVMmaSKEPJMzvofAYtFMgsXHTlCo26RpgtrTJC6niBDFDZ2E6hMNO9df6CJSSWDi17VOBTQr21Gv+bnU8aPYNFMC7gQGYJU+YzSBxRfgYCAGSWk4Q4X6kuwgKe1EtCO1ia9EQlIyEBgGzc87G80WaAJcoackbazO/USBogQKYQY1DvATGckgtKGWmnmYxYIOkgmXd5JfeTvIuzPpxjxDK2u8sXwpKMhEcI5RFIx/IytrvLMweybC4B5cl51cypqA/b364b98+cjgCN5CzViiaBMmQoeMyPCsJKplWU/bfM/rCF6LF8XMpMPzjfGSWEvC+BRoyRTjix8VZlPDgj2bFfIuPBigzPvsmcwjRGlRpn2h6j7F4enhULs0bdbFQekrjZnWX9xSt6OU/2L5jC34PFsdtOvpBkthHknTwrjpZi7f7FE/kI+yeayRISip69+f4F5Rm/TqOo2eSVntcoFOgf3rnP0lBeWZrEPBx4QVExK5k847F1YUOGe7xYbijP0kZDFLL7ZzC9ZIFuQdocA6JvN8zsVZd4t+KGxGMdJGAnn7i91ngkaWAjJXt5VjAO6+/kGaqnA7xi5DUhC+oIwGjNID07ewUejwv7prRmJOmdvzH/+ah8wfuRzQPP/HPGB0thrLlntNkvVJ31TUSXJBkowvWsCip5yqTthNiAo0yuIw5U3zTEzKLARCMnHnmJmdH+OussxTnmPU3ZvYIUkA+snxywTWRUn5x3ZZZbaXDKXFF/lpI6M0Z51s/szLuAPLNXjOhxnpIsqxyS4v2zlL1wLOEpWFF/GR88q6yg7yHjh9MmHWDEAL2zyrBgpcT0zwUrW9uAUDKrbIHlmkEYRVQc2PDOU8mDEd7jl1U+ZYmvSiGxBuxGNDqfqtvxdr2FQgxWM5JKw1AWYbViBBtIsr5t89gs6CDJ0kA4qBvY0KlFDOLAe88tYb0d+NipZXQjK2HpFwrWAoZMhXUkK06GoqfkvrWlhcn7561hozdWSv/Er22YLV2dfgLGf4mWuf0Qy/yPVd79mqCTpNRd29IwzHkMlc+cCSZQhiGMZTbBM5REu3O9hwk9/eaUdUkFA6IqDWpTACon+yaDjVzHlHODGaE8wXAexgx2b8zSlniA3JllWLEVM1YrZnvaJGoYcq3RCOpDsWUBa2/3sVteFhA79PoZG7ecv6yNov4J1vcpiK791OQLvZudPnKvlkCAgvWBDgvqxdKJzofyMjlU2q3bXhTsfNXzNwzLzJoN6QIOV2uiiCGIMJa0WffZIyUv3MQe20R9ZkiCeUHtEums12MVVYS2KTxSEiNlzOP88gaDtzWWkaflBJZ1PL4xSJF3PkcRveXBRmsWwflOVNpGCziM1Eo5tiIlVKWcOeKwpkccG80vbZA0vnjWpoA2XaDTlzxeNO34HQOUgm0NKfR+Kg47JFF86L34GbBke/Z0tgDmzaL01ZItwKpIB0ieYSj4XF/AYF2WxsM7z1pkabaYn/B2vo+4gLmdLQhLpcDiQJbHVGa4wFXSxdKs4SvL8y6rRehbnnAwDWYtLLvWtdqhrvHhJ4vvL7A/7i8kv12fnm4PLPf/jy8q7afba0z9/C8=);lineShape=1;strokeColor=#000066;" vertex="1" parent="1">
          <mxGeometry x="785.9176405035405" y="46.954800723688095" width="170.18396962462836" height="115.81304868309537" as="geometry" />
        </mxCell>
        <mxCell id="Pv8cgQ9Iaqcld1MLqGOb-17" value="" style="shape=stencil(lVnbUhxBCP2afaW6oa/PxvyHVa5xK0YtNbe/D50txmlm5yS+7QWmoTlwgDnI1ev9zfPxwOH17eXp6/Hn6fbt/iCfDsynx/vjy+lNPx3k+iBXd08vxy8vT98fb8/fn2+G5Pj07enHeMKvs55Ukji0OPw+/xIDxfL3l89nhYfT40ohJersFZj3FXKkJpNCpw4OyJ1CcvLIoFJI+iTfKPR9+SrEbZIv1DKQ7/Y4k89Uw758S+aeyScK4PlNKPv7qcie6u2PkaQChUB9o1CAByVTEa/QIlAIlPOswNQaiHGxvxeFTgn4kMWbxJUCOoF91ISpA1jkQHU+IeFEUIU4Z05SJGKFMGeOGlmQD5nanAmpE6PA6fPqrFApAiyVRtmdkCmAE2r2yZmEAnBa0R3mSKdIHZjUo13iyqQGoNELpeavVcC19kbVJXQjBtDo3SuURAX4EEOwWzSNymblnk0yo68FSgIUhJKreuoWCkT2oe6JBNWZ4hOiV7uHvULMTgFXMi0brpKpQkcJkSxf3rknQLyOhImbIxC9CdWNTQUoSPKFRq+pgWtS+kjiAxETQFOx0riEulIHTo9qPRcazUJEWZXKDA3lvAzAFz1YK0PKVSi7bFDCAPZsskfrVIHPj3PJUCg2cKPBCsoinykCf9kIfJEXmGvK6K7DUDpEzOB7MJVH9199ER7PRy2J0f3KflS/useP1juUl9oBeocLTBpVaJsII0SoQppDoBASVB8pzyGuSjsAEsoAM4S0TYyAdcomZQRmfbKMXeSTdQM7EOLgn58R5VB19mAIBYvP6n4C8DfYv0vAuoF2T95BtFoEd+Q9grL1Mjv+FpcyCcZLNvZofBFxUHUpwIaoHTy4Gj16MYg31zyqPeg+tT0u3t+EepYPysdmVL0CKGL7kQGzBy2aT5cjIJsWJ8MWfvTfTqHCPk3JPs5Joz0R6g60n0jsT0CzoF6ig+kwCTEr2/NWTidUqjfc1xhOFfq8OPtQNZQgDu8Wr0sFgmr1cdDcRLekJnXXYHdLp8sK0eh0UVBoAB+0N5XZaZ0oGZyg1apsev6Imlm2nmxxOuC1BVv9X5MyMCmxp6gS4aJAqjURiw8CG0dpNpqtRqmEFRxaBe9SNEXd7mUsL0CZ3DqtlbwDnhrrpvkEbYfR2JLaZgrBMwV7Zha4JxhBmktAgGVPec/NXXhiqexXI8Ec2isYbsIJcLnTisdphJ2XzuPs11+o0WmbYSIuC7c9B9z8HnXMA4mjxORPyLCAjRC49VSxKW9vBdndCTpxofUUezpXPkUj2oUtaoebmgt72g4rnhQfN1VAdCvZ8/PoCYAPOvn6wDV8gviuX6+V0Ry1aRligR2AbLZNCg2UPRcU8DB+wST5p9MucIz7pOQ3O2O/i+KwDVyAe8UL0Aj4Wj/6kuA/FPTD+zuJu9PDw/mVxvp//w5Dfzq//5DrPw==);lineShape=1;strokeColor=#000066;" vertex="1" parent="1">
          <mxGeometry x="815.5631279367108" y="71.33621363634973" width="56.83146037389206" height="53.384199058411525" as="geometry" />
        </mxCell>
        <mxCell id="Pv8cgQ9Iaqcld1MLqGOb-18" value="" style="shape=stencil(7VlJbhwxDHzNXAlqoUSdneQfAWLHgzi2YTvb70Nh0O0W1VMTHwP4NkuxWyKLZFE6pKvn28+P14fIzy9PD9+ufx2/vNwe0odDjMf72+un44t9OqSPh3R18/B0/fXp4cf9l9P3x88d2T99f/jZn/D7ZCeRpHaryH9OvzDx6YdPJ/zd8X6Lr5SKw6uex5dIJQ34SDkAvFLUAZ9J03l8zdT/2+CVAsArUxzXHyKFDAwKJRkNCjVg0AJVt2PzMXBRK8TjFmwPCmLQlNpokIRyO28Q2ILKo1cjJeCm1ii5MDQKEW6ijG4SIS3QTWE0MKoIeIMmyuMejCsVvKGaQR4MjCwZvMEWwOOma6OIkoEpjUuyRSKDpJQcWwsJSIdYSUYyqQUfvCGYT8Z8bkwFcSP6SL8SeD8OlMKIX5+wv2fK1eNROjDV6NeDMtoSeuSRNhKQn1MqaKUm8PkOXyiAkDFJG/FCDNdfR/9rpgrWH5ZytcFn4M/gE9PwEew3Umwez4BAafJnogb5UMuEB+vJS1XY4sF6hGLy6w+M8Dr7B2TY1A8ML+D5ZUm/bXzh83XMl84fUObKUmY3+ITKIrHjjy6F9czzm8t3voDXkQ+W7xhf3fMzJRDf4uNlrQfFty7VY8VXnC9hx4BB2wjGx+RXFJFB9V2graTdT0n2ksJ8FACHLGnCSIqWKACnmpey8+paB/azeCqLVqYF7MEkSnMG6yP2DeZAM0yEVH3mdANQWawba/YGyK2pUSneAHE7T82pMWyuZiDi3Yq6TTeY2iVSFHnd4sYAKXjbtJMgnRoocEpFvQHS/BY4VyK7REAGZe8NKHBCdaJ3Qm/IS4/ZGEAu5UWBb2UU8lL22tEMLiwpT2xtF/YwZZygPQiVqdRDOVsm8jHWCpOc7QZA7BiXZgOUD8bWPO0BuTWvK94KZmzgI81Q8PQUnTIOKWYz8P0hwEnHNu1Ff4Q90dzapgRKuFS+0YAn8l2QnXXS/QInzi4MJyGAhLYpYTfeWWNH5d76dHFLUopImq/KZTVoy5R7ZjD3lW8zqp9Rz03eZBCmqlEhvYM/f+nyCo4X4U3yLfjDjgvykPfkJxy/XKXv8hbiXUvXVZC+j3eH9/HufxvvylKhNnxOgG/ix69+HALx/kCqQX7WnfaK+BPmgsLwXNCqtGd0gwadEtVvWZEIKX44shigg8SsfoTUuJTVfafaYOGOKpUSYFHlRVyuBokKMFDeOT1Fdb3TYPRSiVB52YSZxj2ILLXpH8+9c4N3D/2MeXRrxoOFKQinvPogAAJnvciJkNjgKG/NRUa39oIJ0rMfEI9vMP4KOq6pS5hWgwgP1muYKiQ8MS7i9exaMvfx7CsMZl5nwRgEfPUg7KVmWNLvHF48HilTmW+A4OGL4R1NA2SpkVjH9TApaGgdLw6PBIjhW3Z4dPBi63fFiGEDEfYTFMMUkEnh4AlNgj85YiigDF/8jSMSvBLn/TJaz1tvQC/i7cPrdevN8e7udFu7/d9fz9pPp6vd9PEv);lineShape=1;strokeColor=#000066;" vertex="1" parent="1">
          <mxGeometry x="934.0084451380344" y="101.94439057892862" width="88.48795688244536" height="224.64724787893454" as="geometry" />
        </mxCell>
        <mxCell id="Pv8cgQ9Iaqcld1MLqGOb-19" value="" style="shape=stencil(rVnZbhxHDPyafSX6Pp4d5z8EWI4WkSVDVhL7713tRa+G7JlaC8jbakROs8li8ZhT/PDt4e7r/Sm4b68vz3/f/3f+9Ppwin+cQjg/Pdy/nF/x6xQ/nuKHz88v93+9PP/z9Ony99e7ITl+fXn+d7zh+0UvJIlxaAX34/IkSum/Hvx5kX88P23lvUSv5LPUfCzvm/iu5Kt08n6fJej3eyfZEYUgqWmFKL4SBScuaIUigZxQpWUt3yWRKxd7gxCkhWP5JM3IF2nlWD5KLzpiXhJ5f5SoHRSLFM/knZZPYd7oQN5re1KTQO1pWj4nSSRgWZJT8sVPC4/iVbV8lUrs8YC0BkRNEkgAgNGkI9ac+EQUujSdBC3TE4CJojHXuuRIFABJfUIPUohTI/Jee6mnifN9hS7RnACgkxNSsjjtVTyJQ17iAIVALp2bzTSYVAkyCrjKKORJf/tQijNMG7cyL9UuXYMVgWNxABCKjgOeNIKlDqgZaHhp5NI9Wi/VSikePglJK8T5ZF+hTGxeM65JJl4aQNBuLZFWkaGgwYfYd8JJMKlpk0AyN+7gdBxSn7x85CWnT0hAF8ES4tC1WwevEhIA1KqONHIwMC+hDphajsgQaACb1SiAFoiXWrWsgdrTGbyTOB1pMJUnl0YClaUasuo2uFp7aRQYUs6BTa9pBj0NVfC2AQiOwjtfM3jTMTRW4ZachkImXgLU3HIC81JytmTdUAByUllMIl6KcZbAjUIh+RDdvOJGobKiWG2kb7gVyCnrCVxhvQNrTUK2CQQFR7w0mhnTrTYah6FgutVKaxwUcrYKnqAVCra/hd/YHYpEZxU8mxmK7fjQQXVmUp0N9laBkHFoOz29YyahQHmrwJp6KNg7lNnfHHVkbolDZlhaFRrtu3dManTQ2Ll0p+3PcOuiQKdDBG5lPualsjNcNWbSCj7wEjNphXen8+FOAjUp701RNuPukADqKk9RSzPlvURW5tz+u1RZOJGtZJxn6/v/KIz6UBeTWMmKSxUttNcYNW45IRKTRhVd3JoIWlGn/UKVbI5DJxAWkxj4Mq64EBnLuBIm1DbgS2xoapOrt/lAwFeznUXRL7FOAAOM3ZhEWrJasUsoZEgnXsLQZLp7UBsD3+i99R0ibxIxPVezlUnzFYcDh8ZSrLSbeZuer/ODp3ur3mzvjZGcTop9GWk6n1D6XKxspixHaMY7N1llO8jxI8zqpCRaFccljALvdHu1PIORguXomI/1HTC0JGaSt9ho3E0Ys4yXWqOhbm7Cf7OnoDvNZE/o16zdZ4FiyfUNXkfLmWhWJyjUZLbMQLOpim9oOdowFWePYCkUm9RkL8HQh5Jil16VEj5oxVfrV8cqdbQtFtDCWiy/9GRACwu1j3atNhZGLOVsLw1CZxZlu18uN9pQ28yMAZvIe9sXg2SY/W5unzf7aFbVF0pKge6Xna246CMYSzpbDtHZVBYwW6ADT80wSX1TbhnNL98b0AA4ttO0dAdEZUZ3du/r4TGSMz7M2e4KuMkE+/JlKYR0sBpDjs56cCPzZ7AfHNwt+Wbl6ewZ7X6V09z4ItesPOOgZAHqaBsMeQNQR8vZAJC9L1vehmVT6rk92XKop9+rwlKPA/d/XhaAfDBPdnEbafUeH2/MknRWkSP5932CvSmPH2/fez+fHx8vn4u3/7ffh/Ho8m05fvwJ);lineShape=1;strokeColor=#31FF56;" vertex="1" parent="1">
          <mxGeometry x="-330.02044286854607" y="445.0574323344265" width="115.64579267000789" height="106.55832950351663" as="geometry" />
        </mxCell>
        <mxCell id="Pv8cgQ9Iaqcld1MLqGOb-20" value="" style="shape=stencil(7VnLchw3DPyavaJIgs+zY/+HqixbW1Eklywn9t+76TVnh+BOu5JTDr7pAZB4NBog5qRvPj/cfbo/Bff59eX5z/t/zu9fH076xymE89PD/cv5FT+d9O1J33x4frn/+PL85en95fdPd12y//TX89/9hK8XveAlhq4V3Leffwni64+/vLsoPJ6fZoUaJwWfpASiUKS2SQHy5Vhemzid5FU0HctHHOeMvG/H8kmleCMfiD05SEhzhKQS+eKkeiPvif2lSpnj4yX4Y/maRPMk78QRf1uyCXOikchHGx+c74h8FheMfGDnl/Hvq3xVIl9FvYlPIfFsbYT7Gv/Gzm9SZrzFceFNee+2eFwBXYkCLmizQYUnoEmaAVH5+XX4twXIiWcXVHEmon5g/CjFpoR9EEdqAJjLahVSpqCzSQ6SCaorqtKYVCSzslSJRqHRNGS1dQOgRkYs0eYNSE0kcTEPpt1xrxIqBTWqUVBa+xosVAHuSNgdCiYPCgVS/aqSTPUkCj6c1+awJvAj6wfFmhRxJzEJYXXzDTiCoRWJa3NY4RXDEqBhbwiDNG+DL4yYbAqJNrUCUpoVYqRO93ooc1jz6BNHCqZEc5LG+g44YsZSSSOVt30okuaw4s7ISnTxoRYpBK3d4rkVNi+NZRq9YXYaTBXIDcBmmU1C+2I+RLg4Jw50nkmmAbUyR2nXYI4GKlNBsKmRK8CMYb6iOd7iwgDnlogkkdywjEiFw9tJM1DiJe1s+RSAkYDb2frMaKHUnjyPMDkPWrsdIKmz/RnVyZI8SHeTx4xK/E0DY5t84HQxmutenvVnSXGxh8QT84Fv1uHMAhTskIqI/kLBQAIpa8ykpTKBCUZ48MGwPECXSRL8ggqgOpL2DIwZ+UxLPy8eFPpSiGMi2p3PXiLBorRsT4EDVJuRqkTamd0YVjb5MOruqCpNijk1OstCuVCy9ot8oqhGfJaqpPOaZWpUWSJ42LKzk2f219F/d/Js8O8AXaqSDTr/WgEpMMTSIcF6Ex6zswLGBjpwlpGiXauhRQCmNUNCpO9lvPdNGmASTduGgl3dsLcImCovwA7shnoDSZ74AIVonpyIErsB/XdWiHWw2e0oVVv8UFD22gm2JSS+V8C7wLw64UNmL4Vsx8FeD8QHhQFmpNXB+bfRCkY1Fed4PYDgZopJnraEPunMPmBATMTpPoqYB5iO/cThPs6sO3iUUKLZDJxKsaR1lMtuXcB8QKbtY97xsVzt0Nw3GIRmOvHON2xO3Z6P/BgvrysY1qnw/DIuJ2pPXZ+clMT6jm225/eO7feO7X+3Y1sGVPhQiQLKxgzx17H+qC7LnDZwUWOtNti3r0dbYQ94Xbbrid4A8mqG7fJYfBwt5UwtQ4Fu8bwdSHyhc6oum5f+SYSZ5GyUeqdjrdZJNN8sUG9sdG7jvE0h00yvXQcVWviWw2yPcASb82CA9aHS1SVcDLrcwJyOo0/ufGCs0buAWgXHbgj2SQWvHFu8LAUEI2nivG21MJIOJP/hA+GvFPDD9Xvkh/Pj4+Vz5v7/9vsl/nT59qlvvwM=);lineShape=1;strokeColor=#31FF56;" vertex="1" parent="1">
          <mxGeometry x="-297.18466248495906" y="484.47078220620733" width="49.44650688756851" height="42.937785282580776" as="geometry" />
        </mxCell>
        <mxCell id="Pv8cgQ9Iaqcld1MLqGOb-21" value="" style="shape=stencil(7VjJUlsxEPwaX6e0L2eS/AdVmOAKwZQh29+nFSNhzfNrwy0HbgZPW7N1jzQbf/V0d/243Tjz9HzYf9v+2t083238p41zu4e77WH3jE8b/3njr273h+3Xw/7Hw83x78frZtk+fd//bL/w+4hzEnwDOfPn+A/vxcV///lytL/fPZzYV6kL+2zX7W2WYDQgEYCLEtzCI78OaL+XZoCjLgUr3mmAZYAsNc4AKymvAyJcMhpgCwHk/nsDYCS5dUByUmcAKpMNAaSe9ROACeuAbCXMQbsijgSdo/gyA7I4EjROUDFYdBcJGoAXjwcgi60EYCSoE6I4FrQRU2eAF8PSCo+VS0YiCxonzHUoYrlHfm6lKIXlyEhRrSf5QplV1XhbOHFzhsaB5+19r9CrPeNaDmK9smcFQNeZpOwDy3+UOuffSmT5BG+CyufLgWfti5M45z9TMSpF/EwzGyQTuauop+KllcIUGw02e4SWYyFbM1I+Yh4qfv4IaM/Ms4CwSBfV3Ik+urpKYkFETZvW6KTO1UqeTyiGxoBCKOKULIWJS9aVRhoia+2kJxtKc6G348xNpIHNnUaGuQ4Vo5B0K9im5KtULl/QTyVfiIqdEHtzDsAFQUqLOmDYMpfyIgbDKV3FZg3wjNNGcxQusTGCr33WQRvS3lANxdES+xViDRBmWUX/JuaS0zoPhhSiMwAYBQhSWJYQ9KzcYLknBGppnXsJBLKsl/D1TKATqVrrjVL1EYVzNM/jBBxl19U8xvEAJN59YJCSDd/V840crYZqZVOBuXJQssBlQ11XS+AqkPTdEN1Cr3rQygVH6bWh6DqUcRFa6426IHVhOvNeAPo7zr0EJz0JGsqo6pBGGtZGUJyDjsPJ80POaJeipUoGgHr6BMM5GrpIvPE1hrSqE1zilQ76cdXuM0wFPl4Bm49XwH/wCmASnPvPDer3m9naKKyz/zbRUQi9LWphAI9IBO2EBfMrCyHpK0mI9OWzXBiEMbneuJIAwJIstaXH3KXBSyRi1NYqc9sFR++SbXETNMCRtOKdY5wGsE4Ntl+XTwBsNdT2a1UHbUjQkAY1awGoxCW7eMigDuzVsNgBojMYexY7RthXErLtc/jEPhOBt1qMYM92mKZfAU/iZYPc6Hdb4DPQdC0f9razdcVePbfbUKb+6Od5oRuAhT94zrNbwiJen2hPL/LpA/VnUS/0+Lv6AfaBCMt7d9qX7fHhdYF+u7u/P+7fT7/XC3f867is95//Ag==);lineShape=1;strokeColor=#31FF56;" vertex="1" parent="1">
          <mxGeometry x="-192.03207041016822" y="490.3292679030278" width="81.18634978095382" height="31.240979673871422" as="geometry" />
        </mxCell>
        <mxCell id="Pv8cgQ9Iaqcld1MLqGOb-22" value="" style="shape=stencil(rVnbbh03DPya80pIpERJz2n6Hwbi1Ad17MBxmuTvQ/VA2xW1O06AvjknmpXEy3BIXeTdl4e7z/cXDl9eX57/vv92/fD6cJE/LszXp4f7l+ur/XWR9xd59/H55f6vl+evTx9u//5811f2vz49/9O/8P2Gk0DSOorDj9svSUnl31/+vAEer087ABcKcQEwAAiV5AG1AYAdKcyAQhnsEJVKnQGVMtghCqX5DjlQDgAQKPEMYGpgh0phvkLOVMAV8rDItr5SAQdKlOcba4QXEMqzD7RQjGi9M1AxC4CosPU6rzevZ7S+lHm9UgPrM6X5vpWJwXr7mszrExVw30pttk8txAkERPRpUxvlAgBp+GcAWhw2PgZUf+UmxArzTOY7NNsTZXKjmGdAhkeSTDp7rSlFENWJSbMHJOC21EYU7AAKjpSL90MHgMTURG25A+KKwj4VDMDA06URR29WFBo1E8/Bao5LwKwWai66G1MFVrLISS74wkjYY4B5egZYPqD8N5tUl0BCFVy6GaU7xqhU0Q4rwCgAOG49kvk+Ao7s0e9I24IF+MHMKvORkn0CXTpSmINPdBj62NNmk3mHzlTAcVUXAMOcNl5sMyAWWP/Nr3E2q1XTiqI1DtraAAF62hIozsV2o8Lj9eo5AHOGxU2dvZApgu9rJZnXWxwhijFpMMeRjGp9zGG6rkepY1qlsDsPckBKg+B29kG1vFFwJEwB3FeW0mbVMaPiH706suoYUKWqo3hvAB2ZdAzQYZENUKEeMYCzqRlVgADgTfRugDwS4wzgyKKLPlTPs69U9gmUyryRzw4AL518Hel2Q35IPtO6GdAOcrADox3EC1u7FUrmrnocwLIBH0myB8DgEx/e9gvSnj1952g1DkYEYAfg7AEo4wzg5DPHUezOQkPibwKq+COhhqH7dSk8qLQZwNXzblZkJfUk0B2HScDJ1R4aeAefQBn3wjpssg9vFBr2veQBiu6QD3aAjktDa+5JAAPCSjPIcUK6pChkDRnScU+Vb+S0s1Ia8fu/AVxoWH1AI4aecTPzRdzQ8yJXI8OqLsH7wapoAPVBrIeed6iw3ZO6zDBGgTmTDa49FBgXJktc9kQohk32OJoMsLypeFkShow4k23a/PeBPYssHoMxVIqXVQwLTw1ek2TYR5rQZteDwX6n5kWYR5iXvVeYEzniiOjdiKuEEdapFpYqUgZ5nHVU0UnhDFvh3rO5FizBCUNvI+dLW5OHdFtbuhELRDTvbMsMozeqaDQUgtfD1gIpPlOYz1QxG9mtXWyYawLaIY1Y202fBHkuLGOSDKe8dmI/ECtwTGI2cQK61cGAp5MbN0FrlN6YDTUPQCndp08ugwImpbSObhocJCf2LNO2T5wN6TJ7QMHN1XokRgKAF0Ad4+XjAC9eubU3BvqLRm86Xh2Oo2/0m7sJWgAbbA3wbhgrIJSWUmhUiFKa/QtGH7MgC/k3lRph9xnG7hthFNglrQSzDeDP1rvRGY7SQDLbU81fgC2CTzS17gLaM7qJTR167OR5wY3zc4baSL1+zAzjofkyZXmdkH/Za6+k8H0n6hhJ7esaKiJtjCo3gOkHJFDFNwpGNUgfHTz8mVuQQF2fFhmWWgOU7AGMHiTiiLL9HdAzWPSEbQD0LmQAXcwKH86ibxQMgN4XDFAXT6NHlUOAIj+sR8IDz4NL57d28GbF87kDxymUFwehoVAt/Pa79i8A7I//ntE/Xh8fb6/w+//3z+720+3JXt7/BA==);lineShape=1;strokeColor=#31FF56;" vertex="1" parent="1">
          <mxGeometry x="-63.320315007393674" y="435.51041762437626" width="140.44018930097883" height="94.13284460143974" as="geometry" />
        </mxCell>
        <mxCell id="Pv8cgQ9Iaqcld1MLqGOb-23" value="" style="shape=stencil(rZbLbttADEW/RltiSM5znab/ESBOLdS1A8dtk78vVUG2h5ZvUKA7WebRkJeP4aAPb9un180g4e10PHzf/B6fT9tBvwwi4367OY4nexr0cdCHl8Nx8+14+Ll/nn+/Pk2W09OPw6/pC+8zp5E4T5SEj/lNpKh/X3yd7Xfj/so+Jqqhs+dCrd4HUqGiHaBKEQC5kfRArNCl0ihzB2QlKfeBWqnWDigWVb4PtOZjaEI5QaDGHoiUgUutEvcutUypASBSkx6oi27rQKDYJ86cVHBCTcTsgQZisDykegMEAMQVlxi4VAKxC7osMqzXUiEuXlYBLuXkS8OElgiATOpOEJiHXJe8noFACvqhCGmfh0v9rgMWdOqBAvNQxSfOgARiMAdC9kAFeTBNWvMxFFStmWrxKjFqIJsaTlZezlwFOAQKrvoUEtZgvuUSHH0WhJutreCohYI7oVFAkyzfuGSTBwymyhT7YrrSYb2aMoXkj0gIuDnChIuo584XyFWTVoY958eATcP/Cdil1foYitUr0DWaJv3An84EgN4UU2LKoJjE7oO+I9SSD4qJlULfEcKwNsIi+rlHl9F2x9y1T/7k69J/PS1jbd17ir08ShUEq14cgTWal/F27gJYoXxz7wR4ObMtVdHZMwrWlE7OHvXkFJ33R8D+YvFqc/boBhHbd6LTB413leUGu2QroGz949L5ub09XDbcl3G3mxfk6//9Rmyv5m1aH/8A);lineShape=1;strokeColor=#31FF56;" vertex="1" parent="1">
          <mxGeometry x="-0.23330758779911775" y="466.6462684621081" width="12.437811982015988" height="34.02671836155605" as="geometry" />
        </mxCell>
        <mxCell id="Pv8cgQ9Iaqcld1MLqGOb-24" value="" style="shape=stencil(7VnLThxBDPyavVp2v30m5D+QWMIqBBCQ19/HnVVPpj1MIY6JctuHa7ptl+3qnkO8eL69ejweAj+/PD18Pn4/Xb/cHuKHQwin+9vj0+nFPh3i5SFe3Dw8HT89PXy9vz5/f7zqlv3Tl4dv/Qk/zjihmDoo8M/zD6mR8u9fPp7t7073K/tMaWMvcd9ehILOgEoJAXQ8bwEUCnUfEBrVMAMS5bYPiErFrRAoZuCzkMw+2CMCWKEEyjwDCknaB1QDzFuKgRSs0JhKmwFMSQCgUCkToMcNJFqZZF4hFEpoS2UQZwGEscnXAZHa7LTlviIfmPJMPqmQGrUSz4mTRKoAkIjdliIFsKXKxG5LVlGIGkqxbACAfKVRm/MgTA1wyQCpeACDijOAzAXUIPdKpTZHtVJFHtjfdbIvFEESuv3scSYGTDV7lbkWBtd3/c0zUWFHMntXzUIJ7cfCN8eTR8PZo0QSZy8onrp9PoqPcTRF/3yQ3xo9H6x3oOdnny8JFEAC6tI9V4WPqsw6RZirzChRQA20StlRQkhBp1AZLi6ACvupZorzCjZEBPXTNvrCahCiSSu8pHWpgwyJpOoTXWwSBgCwxLpKtrED4qqBqgMorJ3WfO0368CAG/Z3c81IKYNqaFaM8woa4ZZqGy4uABtsaCjkEcQFoCMMe1PETcJVLvcQriJsCdTDrEbrnGrjV0MrRM9XXWpkD8AurpkUxTX62anmFQY4WWX0QsLNAG7+W9kKilLy07mrGpwHJw07+5Bwy0OArAGg5AzQqt8SoxWK7xvmNIOCMEBNPqwJA9z8tMQx4nfxAsCoAcm3EZ9GPiQBDBAcAKvVPoM2NfrG0BLxgDekYdqUaMP0dl1AFR6VDODOVhYlJMR6AbmKwxK9l6iLUnqrazgpYM1VcNdIzmmhjMJqhwCXaYbqqudhU6IFHQLeDai+35ucQIKpLU1lNeQyWMH0THIr8NB0e3rGrVBxpnU5IywAHueI1wHG1lkUlwwnkBbf+XKC86GvMDuddKy550Nw5/SM81CInepTKGe6dnCn6ISlcR2td3WKhq0yjgG1AAQm7v/58PBPnA9Bj/zrz4emP5qzT1iFOT7YGEL2bXPuGQTcq+I8Exor25Y9n60AAiBc2yY4wgOAzTzXG8VqAp0mN+q89xXcG+vsc4xDAe3ezrkbxjyG0N5Q09kHOxEj2tnR0V3nWfeFdR+8DwlfemYZOnZ1NSwgD1H9lmzkoNu50LxmszUraKb94mLmdrbmAsIqGx/sUI/0f/YXE7nAiSOeq2afQbWJH1DdHnQL9iE1+wAc3tzZmr8ookxxc+nBIGXsi9lkCCpm9hI4R6g3t5cwAQ5wHr1txSCkBXncfC32PI72O/ZOOmbc3dlf8VgJJMRo76/Zo2793hdIb9vbhz9vq25Od3fnl13r//3bLfvp/GYsXv4C);lineShape=1;strokeColor=#31FF56;" vertex="1" parent="1">
          <mxGeometry x="101.90417015743515" y="460.6921729175524" width="118.71159647237994" height="43.97990139854381" as="geometry" />
        </mxCell>
        <mxCell id="Pv8cgQ9Iaqcld1MLqGOb-25" value="" style="shape=stencil(lVnbctw2DP2afcWQBG94TtP/yEyc2lPXzjhum/x9oe5QKx5JZ8dvaxkQCeAAOIAu+unH45fvD5cUfry/vf758O/T1/fHi/52Senp5fHh7endf13080U/fXt9e/jj7fXvl6/Xv79/WSSXX3+9/rO84edVLwVpbdFK4df1SZXa/3/w+1X++ellIx+7tDDJxyiNKTTR+YBYpRhRqJL7pJCilEgUinSdFdwGdkKRnCcFTaLMhiKpzAp9WHWmENOkkLP0TBXCfKVy1+g0x6E0aUoVap0DrZKZgjtxPqH2EZmzSJtNCi2NJ8cKJjaf0Nrw26FCWsM0FHqURGxIRcpsdHe/EbcmkzrHoZvEcq6geThxKFiSRIxWw4SzTDMuO1rjrFAlEiw5cpKhQiVudeTEgApKbHDkhDkfbM2QY4UuvaKXGDRalpIwDpWc0IPE2UudZ5wDIc6BazbccKxgUkAhjUseKiwmzleqRbQSBXciFIFO4e1hAiwtsSdesjZK76YuGTuhSZ8VHL+RVD5XqHOKeoYo81KTMHvJc5BeqYjN0PAs7ySBPL/y7CWvI4lAwwMHNnjXY8XYwjBxVXB0kSv1NuK66aLM6J6kQ4pKIFBqFePmUGEJapiga3ocy0dEXqaVu3guQMuluZMVW4OOKnhWhjvAToz4x90BZbvQTItrF1iTn9obFduzSSL36eO2Gzwoi5cEIFVKe4I3TsBb431QQkD5Su4fpUaUN+afkR5beVJWdizV5RvpH0FyQvlMirt3D/B/HQlxIh8SyjN/BixyXiAY/gPCLeY798kB5ZXep8H79V68KspTtol9ZpGn+AHq6PcPFJ8aUT6TfPFOndH/geZLVZRv9D5ob6V4S8jpHJ+BEVmcJ1y+UP9jfBvFTzyoD0YaWMDyvLyf5m/Zvb+QeIVdf2yDcp7lV9n5n/gn7Oqbx5fgweUN5QO19wCf1J8fk9edfBgN/7j/is749ymEpHsfPHUl0xLZIJdGct/YRmDVpOPEruPBWbdGOAz8nbKBObyOPzZiKVLKFR/H3tSRrBt5goa6krubfCXvb/t2NOrXsXzDducXZPRTkeAWuv/oHcsbX384gY47esuGMdvRtyUfCeKWyQcUjBII65gxiXdIMyzRnjORK9jMURyGbFSKYVeFfLgqBBd+RAHWXehk71ZjoBPlldYQ2WXdV5xFDgb12vgJAadin/WNDepVdPZSjxQb/u8A1avR4ac5959tsETZik9LWE45/auKNnhkCjlhWcnAwsRogyp7Rh14EXPohI5HME7q4MSZplPSojrAuVkTsTrsZaUEDIQyGpWRJ3upYqP9UnhnfPdMbbjxms2a6M5iFiqT45tRx5hxeeDwYtXeqbTCbK+0+Xt7humytHsKYIPDK3+IAORMy8aiAMWyD3Sd2jCXDY20bMRdyqVCScYyccxJvbAydqWCa1N/BaMly0YddsW0ejtNgpX9usk6pVUoH/j+PeKSpbP7G67fld/fdrtADmwbM8dGntx/mRIqyLM6v7DAhP5hQ10YM+5NntEel++4FGP+XKYoXLol/v6dPGtT+ymt3iuOH/oWeF/ef9w+PH57en6+frfc/h8/VPqj60dO/fwf);lineShape=1;strokeColor=#31FF56;" vertex="1" parent="1">
          <mxGeometry x="251.88030491854624" y="436.52887912568417" width="145.31564596966265" height="89.72776457722509" as="geometry" />
        </mxCell>
        <mxCell id="Pv8cgQ9Iaqcld1MLqGOb-26" value="" style="shape=stencil(7VlJUhxBDHzNXBVVpVrPXv5BBGAmjIEAvP3e2TGudktDJ+bki29Do5wubakszUHfPd1cPFwdUnh6frz/fPX9ePl8c9D3h5SOdzdXj8dnfDroh4O+u75/vPr0eP/17vL098PFYrl8+nL/bfmGHydcGtLygkrh5+8nXfLpyccT4PZ4twFokloMIDZpgwCK5GYBQUIhgC6lG0CWrvv2OYtGYx+oBxkuF2cfwr59KRKtvUqPxH5IKt7hmPYBFSG1EUpFEvEAAJc0HdSFGqTaEJUkuRIf6jzABFSVSLJcEHObtIZ3siyoDAeoM24vl0WVogbQgwxyJJR2sGHtWQZxOkUZwQK6RAKIZcZkAkaU0PcBqLxq7REFUhnlzB4xIq2QpDv7Mbt1xz51b99JHUVpwdtn0gpRos3AQG+T7w/SbJmORjsniNpOG2U+2bGP0cdfyflXYtjkN9LzB1eiXTo9T3IFV2eEd+yLs8/SGrMf1t+uMyM7+crOPlFeibOfVvsoSvI1/OxAC7Pzxy5qC6ihgFhBox5tR7Yyn7xMQ+BBmzLwFksZmLE6ZlwH3MvcOzyr1EibADEc9g2l0y5AUboywiEj4V50YUoWgL4hvAJAax5QSeOAF1LzRyqESheiat7pQMIKwHA+DDoOYjjrZszRyLw+z1ymI2pxwhZTra+9IdmGq22Kn91EuCNxuQaAEy8AVHak5qVCfaX62qy1jdODZQ4cZ6cOOkhJQwBQbFNDjCQWJQBsMaHlaB5wJJs4FFNg5dqmhF0BjU4SAMpZjwaeuOBYADzDotR9lBYAe8OYed3SBm+5cuZ04Szg9AjCSufD2sKbxDGBsQBceetrPOMyjeIrPEpqfUCLRkYCGPmuvFe63QOoegCTzgsgvwkQZ+WsADAVORLGvuOlFqWTN7QzJYO5W0gtoXKcVGqcvjGou9NWvIEgBboTh5E6DbHheAlqcrBMe3W+GTH/5flhR56T5vwvz/+tPC9etKEn6VDziw6o88TqLXuRB5ZgqxR4oGc8NFjT96kktoKKhEiLzxkmTicxWi4MbmpmyhK5+yVB5gOkpElTm+0OKzuMbbd70Uo3bEX9tQqpjERQ5TG3RZsNFdOpOfvtDgCRZDqHyWwroFH9DxerDavm6dXLAJ1ryjUPfB0EQLJ5yKsQ3VuNOtmJTDN+V5SaA/BLDwCx+jew3agGfx+GD7SBMGEcoNBN4XLjtonLSu/Dy1rOskaOEtger/uxqbjzsLHZp1ZZAWVOrj2Aq1bkPhASWJjPFV94bS/xtjX7XwDw4c9W//p4e3v6UWD7f/8rAB6dfkHQD78A);lineShape=1;strokeColor=#31FF56;" vertex="1" parent="1">
          <mxGeometry x="288.1331961322221" y="464.1726719527769" width="88.64600468290091" height="22.9305044424125" as="geometry" />
        </mxCell>
        <mxCell id="Pv8cgQ9Iaqcld1MLqGOb-27" value="" style="shape=stencil(7VnLctswDPwaXzEkSJDEOW3/IzNxGk/TOOOkr78vVJeqCFnrya2H3BwFK+KxWILULt28PNw+73ccXl5Pxy/7H4e714dd+rBjPjw97E+HV/u1Sx936eb+eNp/Ph2/Pd2d/36+nSynX1+P36c3/DzjItUygTj8Oj/IjUr98+TT2f7x8LSwLyQ82lfKwD4y5TgCCiUGACWRESDEAMCV1IWQSIFLqVJwKzAV2QaYxzmNgEgMVhCh2gZAUmpghZIp6Aho1PI2oEYKY1otKgEu1ULsVhBqCQCUyhh0iqQNAIRyGAB8ZQVeAZg4giwpxTwAYut0vAwwB0a2RqGI6/CX/DOgUEUrWOGCB0RQuJJ80JNLaAUmHSsdE1WUJSZxWeJOli1AGisdQ6fjFoBHerdr9i5myxF2qIzvz7DdLKfREam/YMu+uAxRxkXmkRWBBL0/e0UKxAHStIizT8jexGTMT4UKWZMXixihaNe6arRCCircbBsZAVYCASG04lV+4hDoTA3Uxhon7qp8GZB7zheCl0BnaushLrYFBS7FEHzzl9Bb6fIS1RPVRBMtoakTc+601nV8K01OtbV0DbxcCPV5tTxU4JI54AEKZb5Vzw0DKHJpltwFIKAVTObHfrNEM4rBJgqXpdznoMuA3D2eARGn1QBj0O1KWqW3/AyYo9oC6ChKzciCAMVnybq2oR6t1NQDAuggC1HFAxgIpZFPxzo0a2oAMHpXB8gkqONiJ8IMqFCLDZAdlwIcSgyQHDUSMajDpGSjS9aiAXDJAHHVoigGS2t0KygcDlvz4+dC27a4EVZLIDk29kWXptqLv8Vvd3BQgVP61HLjrqiMhSmv+K1UUZrE53WSKsRv8Upma0a0j74VYNxIY5aqPQExGDnTKBu2ZyHpsyTKCBBrCKQC2kViceJDZxkL0Y97pgLo8KP+0GqHHyR9NV8YHlCWLInuxGcjFhxZ3w8O7weH///gIL5gWOVrpPiWfFqfiRsx+ph/2X697yQImOYJVwCFA7TNRE6yU4GcbmF1/WSNBzhaC5VRsk3u0JRkSWUHMG0B+9TEIieoDboksroRUyog6LyKQebKb12hubFKGG6dRgTHJMm9t7euAZ1kS4EHRNOqMnJJKpa77vBsr3AMYy/YZi+gztETyezRJhW7tC39ASkNflSQBjMavJYKvrm1qbP4AiRQgNDPaLO9dHXdsnf+2PYEWG32jkEMuyB47TVOI3FcNf4054B6BdLRf2uyjAjqzwnWxQr4+dab+ev29uPfZ4D7w+Pj+SvC8v/+s4E9On9ySB9/Aw==);lineShape=1;strokeColor=#31FF56;" vertex="1" parent="1">
          <mxGeometry x="421.8796779429804" y="457.4607944831441" width="90.79903283000931" height="31.439463021240368" as="geometry" />
        </mxCell>
        <mxCell id="Pv8cgQ9Iaqcld1MLqGOb-28" value="" style="shape=stencil(lVnbciQ3CP2aeaUkIST0vNn8x1atN56KY295ndvfB2Widgt1n4nfxm1oITjAgb7wpx+PX74/XFL48fb68uvDn9evb48X/umS0vX58eH1+ma/Lvz5wp++vbw+/PL68vvz19vf3790yf7rt5c/+hv+uunFSiV3rRT+/u9JoCz/Pvn5pvB0fd4rCCWZFRKFCBQSaZoVmFoGCmZAmBUKlXCuUEnbJJ8CxXYuL6Tz+1MmBTfIFGZ5DiRAPlGdXcplWHgiH2b5zPC+kdpsj+CQJcpxli/U+FyeSWZ/lkStIn/KbH9RqsA/SqFM8pVJgT0xkswXrkpNIUZ1tkgthshDkdJ8giqVAhSqB3UzLyOfCsX5hCYUwB0MA3HOs4azQKKHdasU07lCCcTBn4AS08LqTxCoUM3iGXmNYaYpE9dZwVINxEEbhRmrWigDk8wAdtCIVICXzCeJZ/AVEoAl87rzUo0j9scK6sFXcD2yE8oMDamwINkd4uyl3EbNOVbIA5ubQoAJ1KKPNFtKAbf2wM2RtrKTgZcsrr6NVHgHS3mvkAbgjxXSAPMGDWqgbBtw4uykQhVcuTZK85WFGMlvONuCQAxiUK3RznWVYQ0rBtTq5JE9Jfq+wKOxHBek7JM5j1Q6rnh2X+8fBW2HdXS993gJAIR17eJ4RaQKSnD33wzqTn6ARw/IlJmEGhWPCr1lQYRtxLhRmE0yI1EvryMLN/k6LnUcZGri5RsCxSiem7yOxD6RT7rIg6DJYB47exQkgQzmsZNHpdG4C3t5VOjEY85uJMD/Ju+4qcCiIos/5Y79Kl4+wvg6VtG5L7ivdVP18hUVFV90+/sRRVgSQEZHP5Hn5b4Z4K166tj9D+yvnst2D0B78oLPgIq651z9DaBCbGjc4x/gzVqQw7PlF5R3s9bd/PVtu8L6Y/nYvHyB+S7q5RPEv/d/gbOHyRcvH/Fs494vsKnafRd51PQ+Kt8857CGgZq2cZ68tCTEUjqrmhHUpymgYA0oLAsBNI5aH3Y5r2OgPevzwfMCNAgZj2DXA3DLyL5HRjw3xTGSDPkAIWo8y/HKMBYKxynPnnzjdUatfgYKowgc81ab+1yNwEQ6+Z6UKWLi7XpkgesDY/bs/G9MDRFv9QsNg2hBSWPvc1mT4PBtU2JyVPrO/CODSW4KDSssoMg2BoJLt+a9akMfqlwxBL+3KgKBvR5hIwXiu3YJNxFUHfX1bK507cYmftSObUx0/KYPjkiB/XKsT/wgO23KajP6+p4FMSL1kbMBHhXIvmdxJzTYwyX6Jr6L5XHJS6MJ745AtIjzyLDdsggV4fc2vNv9RLRSW6pM25Zsx3g1YulCbYUBDU9WdpdVDlq0LNuoisuGQcnJB/j+OLY2W74xbDzBz/dS4YJiyWcJY8I+kY9zBPpOEaRCWPYHAgt3GvVnq6oNrzQX7pjgXtzCP9sT8ezaFiLCcHZ6H/93jQet9gyiefbonfG++A1LheTO7ucitj04k+f2MXm3n7hrj6qTz4g7LkytUkUJo5554WWAyTtmp3hbon5aVDiMru9v42PX/7S/weFm9U/D3zEW//ea97EF1J2vefcV7Mf7x8Nv16en27fH/f/9x0Z7dPtQyZ//AQ==);lineShape=1;strokeColor=#31FF56;" vertex="1" parent="1">
          <mxGeometry x="557.5076387025902" y="410.85649232287665" width="162.03080325461997" height="102.10180936533682" as="geometry" />
        </mxCell>
        <mxCell id="Pv8cgQ9Iaqcld1MLqGOb-29" value="" style="shape=stencil(7VnLbhsxDPwaXwlR1POcpv8RIE5jNI0Dx339faka2q4o7wQ5Fsht43BWEskhh9qd3Lw+3r3sd969nk/Hr/ufh/vz404+7bw/PD/uT4ezPu3kdic3D8fT/svp+P35/vL3y12zbE/fjj/aG35dcOIpc0N59/vyS6Yqf3/4fLF/Ojyv7IMjFwd7oeyBfaFSBnumWLfto9qP+3FUwPtTJRZjH9O2fS4kztq7bfsSqdj3S9i2r3o8a+/A+2uhav3pgT275X2LQyMxgxUShXFHGgJGW1KPpxEQKQGfFqFUR0AlV0AQYj/jcmimArIiJcrjGSQQg7TQNIphBCTiCABsvSSFHCJCtokktb/iOiBSHCOtXAqIOoHKDMgQwBPAg8AFocj2DAWkRvBUkwWg5FNAnNzqQRwU4A0f8lsAUwBapEHyNcBYkSRCPiggmEgHcsitWlPNCkIMiobGwY8E0rIs6AxCdSYQWiFQLBYQQbZG18v6GgC2FBM5tgAHsjVxz5yVWxMCBJsaSqkEkk8BdUyN6DsHN1fIAyDpCsCtyVtA9jDSWpfyGOmMy0zU9jpGWqttQMmXu08WgK4AtqQMNpyuvofyOoApj4euSiBQvZtEGONQtXiCM/DUdLVNorpUezNY7CtMVi1jYxRWbXUD4JJdoAAfMflpQ6goOdsb9MAMuOBs0dMuX+D7jWjQkKEscn31xT7AJHKUzH58T/QN/4ixZyjzfE+wlT3qCjIlBHePXWdNJ+HKHrbaKUG1EiDe906/2AtkQKQcrP8zyM84UTLhOtRF74qREWmRqUaUrvk27I3Aa4QE/hcrpupSlTbyQSY+orFFo1msfYD5nCc+Rmjvg/WngP042yyVjxW+35n9Bzi2qFA0+xdYf5ZWvcpnpOsWub7ii6AWYKe6xkfI9/fZl4kvDuaPdhjrUAcVl+4ojh7StorEh/Yk02NKgi1GdW4Yc7p4LDODPUPOcLYO1UY5Czx0VC+NZUsHMTSdxty7xKK4Kjy0qsY0HjoUKAJ1S3U8dGCqCOCsHgo4VT/mtAvgY077H+a0kEiyBSD1rnwwhUxcH2K2OG20nVbbAA7dZqZxBZ/glrQKmW7rcbcqTGkEcKWEbvFyp8sCUL8BTrdrvLGQZXjN2a4Jk7FH+qJdQ0ZrD8KcqhUYGevBaofr0ieSrdZgG2hP9S3qGMHMDAWJUtF0dI2AAyu0C75gAUgyi9j+yQs3rgMm+isADQkKMFORyoiEppA5TwOUJcK2qioA1Tzlrp1kBQqlBjBM8PCapgGMl7irgs0zmEg7eMXRvGTEP7yqFT/nNuLaez9xvG2vD/++pzwcnp4un2PW/7ffX/Sny7cbuf0D);lineShape=1;strokeColor=#31FF56;" vertex="1" parent="1">
          <mxGeometry x="612.4541660245523" y="439.7602934307663" width="70.61201366910663" height="46.06943558655677" as="geometry" />
        </mxCell>
        <mxCell id="Pv8cgQ9Iaqcld1MLqGOb-30" value="" style="shape=stencil(7VjLbhsxDPwaXwlRol7nNP2PAHEao2kcOEkff18uFlqbXO8EvRVFb86GI5GcIUVpl25eH+9e9rsYXt9Ox6/7H4f7t8dd+rSL8fD8uD8d3vTXLt3u0s3D8bT/cjq+P9/Pf7/cTZbTr2/H79MKP2cck6QJFMOv+YMkSvOXz7P90+H5wr5RiMY+dcpt254z5WoBlWLYBkQhzhaQKZRtQEokbgcNoW8DJFJmC2Bi4FIOJBagacgCAIVasIBCEcRQlAab1pioVgAQSs0CmHIEgEhRDECZKQxdCjatnCgDZZRAxe2gewJpKCDZoDlQzRDAVqydAqBB7YNNkkoPR8DWPpPg9cXS/AFpS3gLaZQwBdHqTnWKVVQtA5ph5E/0BGjCQB2ofWdvj/xZVWagjO17c/EKsu/UnEQD7C1VJV8sATjixtQcY330s+uA6l1KDWquR6pWQ5KJgeh6Ie4W0EdpX+/AYYlxkXWnDqLuGoTluUYSUMk9+1OhVsqgkjVqtkrVTBeU10bNSqNl2O/a0t0WgC4BxNRUmzZLXUYHvC4moWJd6p0KUl/yab2g5jpCC078FqgHK4Ct/DqWX2V/PKu+kJrqqid13PQU4Js247zyGEAumENtWAHutG0FltCkZht0k3HCbzEXbc21hF0Sz0PDY1VdVZC6FMAQowDX6yfFI5eWCWQBaJmDClJAdsQFOFdNABuDSgPNVZNLbgeNAbSNqX9bHrRVVeSSULf9Wwso4qLm4AEdtI1JGtEDKuiVk/hcAbVB5Za83dSgJQpd0gJadbKCm8C6RDuKgT1xrY8K2QL4blzGybqVJb+DjOFji4fgdkjwRLkOQEE3P53oF8T0uYIXgMAsaUGyLdFzL7x+jK4G1lIhcSoEpyUdBRAPKgR3bcgCxae8OnlLG1Pm1rnrDhQJuFXqeWOzpNc3RJzmxLVKndMTmut1Bys+rvhy9Xfeldzo8P+u9K/flZAelkeUc/474quOiX9Zn+FAUpovmolhxJh6ZAEp4hTxuLVcPvSAHXL1NZAyFHUOPoZU4SOJxCHiy+YFZKEeuxvoeYmt5zD3MiQylth6cOvuRa9C4pqfqfQ+CT3yw4KeCAxyxP6Cq/YR2sfm7VGlBX8zzEspbdhnd6JFOCiEMTAu9gwH7VUjnZ4PsX3w+Ue3l+BvCoLn+NVBIAXezVXATqF5tO4Ne69ogZ2IV/4neJL96Qv1x/b64/wc/nB4eppf0y//75/P9dP89J5ufwM=);lineShape=1;strokeColor=#31FF56;" vertex="1" parent="1">
          <mxGeometry x="714.4615762859326" y="440.29442179450325" width="102.89279373376945" height="33.44198424803274" as="geometry" />
        </mxCell>
        <mxCell id="Pv8cgQ9Iaqcld1MLqGOb-31" value="" style="shape=stencil(rVnLchw3DPyavaL4fpwd5z9cZTnaiiK5ZCWx/z7NbDg7BGZaSVVuqxExQwKNRgO8xA/fHj99fbgE9+3t9eXXhz+vn98eL/GnSwjX58eH1+sbfl3ix0v88OXl9eGX15ffnz/f/v76aawcv357+WO84fvNLiTJflgF9+OfJ1F6/vvJzzeDp+vz3iCIz8agnhv4Lq6tBkl8IgZFsvpCFt+IQZIUVoMm0RODIK4uBjFJCcTAi1+9FJvUTgycJLcYpDg3eWbglEGVTr7QpcVlfQ6SIltf1yNnuJm+v6/vL04yC4KTmFaDDVpnPg3qC01yoVErq4tqkO4oLuoatVolsahVaesZWqAGwUtbvdoKjVqoEtYtdS+O4CLG6ZPNgOdnclKVQZZGvpCaFGVQJJFIAzglagOWnwMIfTVIM8UPDRBXZ7zUCZaqOUNrMwEPDVrS+dngVkJKeF9T4OsU3j1IXEmpAo5kS/BJXcFXwQlkS/B6XLdUsmTCxL2ajHOcY6oGH2LfGMlU7VawEmUZvG+NNODomVsB5nVLINbCDEyBA3WzSCO/3OolFAcGb2AzqnrVaaRbn6SyK3CBga/Of28GTgrZEuAd10OjqDoCjYZ6tboV9FxZimYNDcSNIKOYeoIXkCMX8N6KJK4yAEx1ANRb8v7Bek2tbwRGoFVF3GkC8Zi34b41/VFuCQvj86o+N15uywzPFjD3Xrl1KsJgKJKaRdOR5wwZdSn0eebF8Yklqv20KYFO1geznmk21BDloD6V67GDjEM7LVJ+em+3vjL5omua3yTZ4XpkeDL7IYiA/op6fSCAcFrS+kY5xQjUES+6f7cmANQVE6hO9xWe1xqjsLE+Enw6nZCDEpl6FKfii9JD8ZAM/plm8VOV7fbjiT+DiVeZevgsX7r2vyf4tPlYpRI8BFNiGu1wwqwPu/VMfHhd6IFnhh8/+XWfX9T/3uQXa+mMrsb6QvGfTD4yPnRTZOz803h+GX+G/5S/dTLM/7I+ar2LisPyt5j1jqom73TF7lRxID3UVGCTv2cVWCmITP2JCq9UXBRP8AMFoQvwlDinCmXdPxBF8JzN2MRRfoPCUh0NFxDoRrRqnQx5vL5MAXZXTKw+Nq+7dT4OaFkrSggUz2V3MIhmDA1hX1ZKx5FZiUTroGo2MBcJJ6KbURiN3Knol7qSuXjCttRMFAKVQb1r3kqVNifeGaYYoyjWh/ZJ/JtB5b1011qrhKl2zk6tyL3Umd1nflXqsqJ+MjfFKcZ2s6XAOiwzsGtbxT3Dd1jzecyWyBdqnxvYTU2YQsARFTaAx0DgWpKej6HhZz3BGBUpzu60iKSm28odvM5oVeH1jpZj3g4zYXaHYK0oKpX2a6JzlkGkyk2ONqP35nwLdea9RNBiEw08a1YM+GqmYq1NKbqbRSU2DtC1rWS6vujaNiZRDHn6vLlQj5pamAMdKxVdewbpkQBU3RykQMXIJqV3tM2av6bjNeYJTOyY8UTgdDTGO2vExgSCyWUQ3rql0SExvZbnFHnfgDNQm4siKFpPQGGvot6RwPayy/OLIhh0a8Dm+9l0XW1Oy88MimkT2IUADLrTBpl9oWisjlaDG6hOZPQ+7NDWwFMBcLAlnj720DBg+WDdCngzFWMDBwMaOAON+wTsX4LvvZvW9w3w436x++X69HS7F97/X18E49HtEjl+/As=);lineShape=1;strokeColor=#31FF56;" vertex="1" parent="1">
          <mxGeometry x="829.4598161194767" y="409.5141356354693" width="148.85331364035878" height="89.16269459374341" as="geometry" />
        </mxCell>
        <mxCell id="Pv8cgQ9Iaqcld1MLqGOb-32" value="" style="shape=stencil(rVfLctswDPwaXTEkQYLkOU3/IzNxak/dOOM4ffx9oWqkCJC9vvSmOFwCu3gQGPjhff/0thtSeL+cT993vw7Pl/3AX4aUDq/73flw0a+BHwd+eDmdd9/Op4/X5+nvt6fx5Pj14/RzvOH3hItMIiMqhT/TL5l6+vfD1+n88fC6Pp+pBnM+FuIGAIVCNoDE1DK00JsBcKBSAICpREshQg4pULMccqYIOHAkLh7Q+TYg88aCygA4lEKpewsFcJBMycWNKQCXqlK0FrgTA0CrVJMFZGrxNqDzfN+KQwMcevaBK0wJpEYv3oJECgECug2cdIrIJaFiVapCQQCgk1gLPVKtIFtDmF1eEAwRownLWmlBQKNSLaBSQSTEy6RXdJCufUn/BdCpdgBIPplWOlxHLEW/MoHaQGubSDTKwCdN8GR9GnVAFSGUow9EAPmqAN6EOoD0U0B3FiJMPyUdbaibVjUi3X2oP6+4FblgG43qVoBKmhupbQAomWT2eOVSQo1GPS6edEYW+vxErWSNiIOqZEmPgUP53altahQ2Gi0wS1prFNaDimjf0bHMcbP0bUMLCLxySjFb0ndrNFLa1CjqTBqntCHRgQVNHU9CdUAAIQk+EPW/AvSZszLVirtAmjVZAAEXdfIjkyRKqDFpHCyHkrGs2QcuF9jwqw40FlAiZWBBZC7h9dsOAEUobjhU4JIOF550gQAdI6stObUp6KluG9KCW9/c3FceocxYorqcDySg8W0mB535OiKwmaR1gALn2c+UugygJsYUbZ5GgR0m+rlE5pn01nHrfp7jcYut9Ybhs5NI3F5yRxtxAww8nv17EGb89XLxuRzmJ+56Ofql7U6fnqO4uh2OqJSbdx4JH0m60yYDsjH5SS1RBmWlCx5b/xmKeXWnxfff2YH143OBfjkcj9P+vf6/X7j1p2lZ58e/);lineShape=1;strokeColor=#31FF56;" vertex="1" parent="1">
          <mxGeometry x="900.4279856866801" y="426.7703198591714" width="41.482627854497075" height="45.42636082964597" as="geometry" />
        </mxCell>
        <mxCell id="Pv8cgQ9Iaqcld1MLqGOb-33" value="" style="shape=stencil(lVnbbhs5DP0avxKSSN2ee/mPAk03xqZJkaZ7+fvlrKGJdeQ5RoE8ODY5Em+Hh5yTfvj5+OXHwymFn2+vL38+/H3++vZ40o+nlM7Pjw+v5zf/dNJPJ/3w7eX14Y/Xl1/PXy////iySW6fvr/8tT3hn4teyuIq21/49/JNlmr/f/H5Iv90fr6WTxJskm8S87F8bNLyJB+DtEYUsnRQUKmdKKjEOitUCUwhSphNTkG0HCs0vFEyCUS+SpxddMdHWaxN8pqoxYb31ypdj+VVwvx8U0ksxmJllu8Sib1JcphTKI8bHt1n9k/xiBD/mKQ+yxfp5D5FdE6I6haR57t1cZavklmKusFzQjQ/gDg0+o3mE1rhVRYkzyb0IBaIQsYi6CpKbNYgcXZqz6Ik6XSpy+42kChbHEHaFapYJApN8qKQSF57mpWCV0rES8UzD7xk9IQaMLV7lFSJQl1So0pl2KLS5iv5N4UkX2vo1tqlErf2tChkruBunfGlRqmsfioCUmm0oLdEmI32yFRitMe1z9ma+wCRQxtmzMs6QnlbQTGXzJOPeSli47QgleSSB67OuaQ2gOq2gifzfCXvIwyXPHPq7FaHWiMl2uLAiL11OhYSherJNxvt7ZpBay1iOiukEfvbCjrK5YovsObjJVrn1GgDCm9jQB0W7rlHca8kfL5JI/fJey/ew0yrLacRoj1o0sn9rUgDdkEBxmE4Bnw+KQTHeYtwfyNp7d2zAruQTPzpP0OhFQns+QF7Z5XC2F1Z+hStgajof+eHnQTMFcLsUE/pyBQWurApkJC9P+9KgaGd37gq2lBJEvnPZqjAsMh/TnOUNxrPSXZa6lgZqYqD4LzH7c4B2PwHjT5yKjQphzoub/h8RmpdvkeUJ3ntaaQK8qzfuHwBwiaZ53U3kO9sULPRsq8CxqB9U4iowGi536gtScegxRXyotC4j2Dy2qLOK62utcwV0lrLBE63G6828ErLCx5lZrRX7qJAjY6LDWEg1OEJhgqM3203xtopd5yEuZ24Bb8nn5ECF55HHe+fx7R01NPCfB8d4HHUMxXAkfZ878lpLrVACbn3fJiwA8U65xRA68LocUecBcqGc7TcsN2EsRU6mtPy4h8m38Y+48r/jJUmUdhY0MnUByYYAysd350mwwYiBjp9tDA42dXSq7FhQpeir5RmtiwNaCZHOh9XdO74bjRbcvQwePEeBB2k4WjkQqbpMEHKwIc6SFNPXHpCw562ZS47wTkEzJmNDnUxBGSDxahf/QjcZnW6tNiGZZjf9+DfVrAlW50y88gBufPBkNVny8il/JvOCwJWnH5mZAoLffRsYYFwyChAHwsNdV73WY1vXRuuRTyUrEZtZeWB46oum+AtW4gRG+cFq+vgG4edCljnvu05aoW4WEycZ/t8BxswvrWIAd3UbCysj9brMBA2mnw2yuuqfoxNFrhrKpVOtAENLnFQ+wN5WMdv63JSbQvCWKPVGcZtd/m9XR/YmwGG61iTHqz7ccER6cbSsJk7+2KtquBy0E9MxP9tNI29zBpdfW/0GBSMU/J10uERjhVPaJSfpoBlnOk0nhawU4or/jPMpmmwgSOUgAkhUfDddjr4/Dvy+EaNo1bGbqB8Z5RxhlKaQWlfiL/LM1B0+TaXgHH/Z1zyG905poWsGW1NLg+7gcxf2C19JlNM/+2XxHfl/cP7G+lv56enywvt69/xDbZ/dXn7rZ/+Aw==);lineShape=1;strokeColor=#31FF56;" vertex="1" parent="1">
          <mxGeometry x="159.0801849383961" y="805.1460403928431" width="154.7827096095963" height="137.34319683994858" as="geometry" />
        </mxCell>
        <mxCell id="Pv8cgQ9Iaqcld1MLqGOb-34" value="" style="shape=stencil(nVbLcuJADPwaX7vmPZozm/xHqkKCa1lIEfL6+4j1YiIBMt6bsdVMS2q1pouL19XDy7IL7nW/2/5efvSP+1UXf3Uh9JvVctfv+amLd11cPG13y+fd9m3zOPx+eThEHp7+bN8P//A54FpEigdUcF/DG0Iqf1/cD/HrfiPjm4z3DT4YgITiBIBPaM0AFLggAKnalCqipFQSmjcAzDgLQK1wxgneOTiZRHMI1hHMiSQgIqbrAGogdUKBNwCVjpRHACEajShMoEpAQzGy5rKHJlt9qsNFRPRITR9hcfIVRbaOC1fIyBpeJZ0RrM7Bq5wDotE3p1PmvlhdYHFLrRKr1xC3j6iyzRRNcYeCrBh5ZIuRR1OUHHK8DsgE7+YA6rll2JS4Jv9qfmPS3FQ1PRNlZZlVdcI445cBBFLCC6ZS+TOlOcoj/j8lVVvahZCVA9jDkwPKzPksKF4fYVkAz49y+wmT8Q5eOYBtY+GMke2TF43YSHmucTvQrNXA/KXBTOweXp9S2RPLLSPN2p48J5LPxHpme5Hx9vqvemwKkiWH0RjGdI8iv7YP1ALhsTOqyeVRq583kDH28ewy4o4HXjbThFpVvDVgmT0hzYgvZ+21+dR0tJDb8mUTyn5GPWns/m39YldU+9XWw3/cNifi+eF0tX3q1+vhZvzzu74K86vhGh3vvgE=);lineShape=1;strokeColor=#31FF56;" vertex="1" parent="1">
          <mxGeometry x="213.77041779357796" y="844.6859642090403" width="8.459123722739909" height="43.12409915266964" as="geometry" />
        </mxCell>
        <mxCell id="Pv8cgQ9Iaqcld1MLqGOb-35" value="" style="shape=stencil(7VnLVlsxDPyabHVsy881bf+Dc4CSUwocoK+/79ymTmL53qEsumMXgie2pNFIlnd68Xx7+Xi9C+755enhy/WP/dXL7U4/7ELY399eP+1f8GmnH3d6cfPwdP356eHb/dXh78fLZeXy6evD9+UXfh5wQZJfQMH9OnzhxLk/X3w6LL/b358tL5KLWe7z9nKfxI0/76WQnw8qOQzro6jfXq9Bmg7rKz1PDBLqeB7tJ1wFJCfFGFD7T6wDqrg4AGBTCduAHMWPLg1NQiGAJt4NAIWXidElSDVOhVWRAJLEPAKyZCWAImH0UgKvEgFU0dFo+C2yHZq4NgAyZwYAaYx0cTRw9Uj8IyCLJ4EDwBhdvVRCbgB0PFLNUkngAPjrxA5ontIbgDh6qRVOjSR5jHQD+YjR4FIaA9eyNBIHsDWYIwW6Q07SjJdKt2odoDZFa+z8XQcgTEY0oEos47zomNNwdOM7uGIBjpBvAYyRBn9ZpAEI4w5IKaoaMHE0GkkbiQjkIDoGDvlQSE4jDiYfAAiMGrGbeAQkqcyGZKUSACZkGRlcpx2IzOQiPlobPNuhSJu8lBmgSq42DlTIgkSTDzyB5pxGAgWSQGCO0dYG4SE24ABx9BJ0qTBtLZZLtVGj8e82ijFymlVRnLgYgOuE/0cAAtcI+XCkYBIIcWByX6UZLjlKb+zgxx0gnonYAEAZqQF2KfdSHY8E/iqRGWi1ybjMRaCpJR8Aie2QJqMzraKoN3Gygck9SmBM1kuR2VCtGCMOmSQQAN6IAPScka/YOIBLSjJuKeMGoLQowq3VyEzkO6BmFguojEvB1ukFwOLgu6icASJRDbBVgzWa3R6QD3FK0cxkpk42eJpA2MHcZ0CNV1QjjTaAfMwGGG3ZWmhBad4KWeYdGVLUzylKbAA1crKAzAC5s//MBiaVoLefUtQxehdbH5Y+k4vA2wDezfeB1qvY+hbN3i1RszK32rSVS/AZQHvhPwJSvy9vsc/ozOIHIn1VrdGwqvHeoY2ycea4dYTaEcKitwzguqycWc3IketkhKNGLH2l6e+zKGsT328Q7zeIt9wgOOA/3yCWilMsgMkGimA2bA29+V0HoDmfrxyErSVPIoAsZ7cgtGxG+iItWmXqZ5aWiI1CYufm+bCFSR/anREA1WjMrQCYW5Dv48vNI03UYCWoRDu4g3iyEgSAbXUjTVGot+lnUqMX5FMHdgQoD5y3RS5Wrnytj7iOgNAvIVsiUMcj6SsJhCON+aC+txPrQ+Bkx5uB5zRMNFOy4Km2RifezKUzBehUULzvV4T1UXywynec2a43TNqV90ilPqfeeEnQsUjHPsZbP449TaSVwc/vCGyW6603lcbXWfXSPmzeWG7uMdqN2Vhu5vuBembqUwP1jLM3Sf4iMw25PR0+ufk5qRDBcl0wT8vZK4Dv7fFpuWeU7L3uaTm7lb/xKezV5fhwenW72d/dHR7tzv9vX+nw1eGFTz/+Bg==);lineShape=1;strokeColor=#31FF56;" vertex="1" parent="1">
          <mxGeometry x="338.2190362741153" y="869.8890131151461" width="104.43532521666157" height="116.00445739146646" as="geometry" />
        </mxCell>
        <mxCell id="Pv8cgQ9Iaqcld1MLqGOb-36" value="" style="shape=stencil(lVrbct02DPya84ohCV6f0/Q/MhOn9tS1M47TNn8fqKekxeXRKn47lkGKAhaLBaSLfvh2/+nr3SW4b68vz3/e/fPw+fX+or9dQnh4ur97eXi1Xxf9eNEPX55f7v54ef7+9Pn699dPm+X266/nv7cd/r2u80VC21YF9+N6JUkt/134/Wr/+PC0t0/iymRfxFVir5LSZF8lMfuA+3snyZMFru83FgSp6XhBEx9n+yQaj+1L323YF2nh2D5Lmh0aHD1Pkhhm+yiB7B8lzg7aTkgcpJLn86s/sfd+tk/SiH2QMvtfmzSCoCDJTfYxihL/BNF5/1glk3gt+yfDQ2b2DewN0WR/lTLjJ3vxNL5u9n9OdP8sZcZPbuIcw7Ob7Ys9EcswC7/OC7JUtiBJmCNQPc95S7EZ0jVKYyFQxHStEhtZUEXnoDUvidxBFbOsKUW1gTjMadCSFBLmmJYjZWkMF14y3KFIJm5NtXt9v4BkWo7iGy5wSqjOYe7bQ2eCvWL/XtyaCHlVh2zUxpXbC8yt85Fq7vi9vcACB1gK3Q2382chDMuHxBIudv4fCxxlbAPC/9gcKW1eIoGzMKX5DilLJvBuBo15QWyd1g4XzHGIShPIjlRnL6nlIImDLdA5DmqVi9Vli+tMrFaoqJcSJpBVwkJy2rAJWDLiYaXBSCXCgpG0t8FXe2kdYqF1WjiCtwM1YvxPHrq05Q5GZEy+GPPNdG8FIJDAWXmqwN40DFYu4QZZAiPKxUdRMjlPdOLm7FGanpu8AQHG9UuUksGeMZJFFEJmBEIC4G1/BXtW29b6HLqiPKr/oO969b2NuC4O3qLlqFp2gB7XqeZo+4j2jLlMy83BOkFnxXbF7FnRXGjL7FlVtnZoBsPWkJDnzRjcLXzkPHnZ31P0DO29s2fxSp0Bd/6PdP8MmqI77MAcsGlSjykQ8bN5pameO9G8mQfamYEeqlRYl37vXzOv2CdWSmt1PTvrUmpHyc6RBDYN6zsPk2UhZImjtbdiz3GCstoxtUcxzapW0J5lSVn2P8vC9q4sz1jXNxahOHaLPWOphCXFc5Wb+t33LEtq1vvtoaQnCp+86KSOjyM0zOaOYnmLfQR71uBuBTTh/qzgNhwh8fOYAADvuN5C3BYYAdHAJ1TRYUfC2+e4tM+Bnt8EGKBfabhyxl44d4V1Oxlj5/gdtbGS7rqC3WWLMtU8BONYELkoGWy2U820VdAeoZ0u96w/WjLMgkZ7i9KHQLsxHiuN1oHhgsx13jjxrj/y7EgNhbmeHKlholmPF1hmupG5+zaS1bHWB0GDiRwPRMNScDKeM79iOxIpV1vfCRK0eD4wiDglKYXS6TbiACmhdCRcl/pkjWVhasL3lmLog0CnVSXfGm/x0RBMSbaJABO6UXSOtIWSzXnX8dYOXkcTNGxtT1bEiELEDhXY3LCint4mJ2xuGJYFmQI8LHOSplQrbAPxZYQWyTP4sjT0mRYIr6jy6xjyH/AAEnipfaJ7oO/gma3GRKLvIrb028SNoDVgmK3mMdIYPdhups8y2vWp6I6UlITAOA5YL9CB+EqrfAazjEgM6EwyDO8Nojfqp88Lya+Jxtchy5+UKr9U20z9H5bJX+gIuZ2V+I7K8741IcP7RN9pZZzXWgqx/SvGa3uLyYoanr/Q6e7WzQDe+pz+FxNe6RDS1JbDERvr680+LiMzBoflHdjJyGwVXzRdzB7fodLyavYojGgR8Eu/q7T0+bq8c+XnqajIYyeYQ3uY9lOp6SuOOGMfKBxWmHn/ROnQ7JE/aUfx7o8UTu3tx9sXEV8eHh+vH1Ts/49fUNil69cX+vEn);lineShape=1;strokeColor=#31FF56;" vertex="1" parent="1">
          <mxGeometry x="356.9302691562507" y="1019.370458131431" width="214.09437681354348" height="179.40630470714382" as="geometry" />
        </mxCell>
        <mxCell id="Pv8cgQ9Iaqcld1MLqGOb-37" value="" style="shape=stencil(7VjJbhsxDP0aXwlJ1EKe0/Y/AsRpjKZxkKTb35dTVxOL8rygxwC9jcfkkI98XKQdXz3fXT/udyk8vzwdv+x/HG5e7nb8YZfS4eFu/3R4sacdf9zx1e3xaf/56fjt4eb0+/F6kVyevh6/L1/4edILFMKilMKv04skpO3Pm08n+fvDwyCfR/koVNO2fKKcB3mlxNviMVBs4/cpZiBfSXiQXwFddoepyiBvLyqQV+Iy+lMpgfhwJB0VOBEDxPZ3HBFkpRKhS3kMURWKCEP1mFujBIK6JHnEoIGSgCzk7vGqUEmBS5E9aBXKyIKFVUcFIxKIkhFJwqQALCjVyaMK5IXKmAVtlAHk1nm2yheqgEjV80iZMuBRpeLwWgSAP7WzssuLsQgUcvWFLIUYfl+cfKIGSGfRGxMsxkLgj3TrK6ktIyA+6huXFUFEjOPO4DMDKMHR+DVZKMDCkjLxFlAz4uotWIwC4FCuHoNECrqtUAxi9AqCWKEUR5pamv92zMtpnupm4QXImxhRJyKh7qXm8YQhglZhhRhH6lniAmoVlYKjhr1BLtn3xmJrhRpyqfl2ZxYgBiEpHgPqj6q+ZVtmBFDDFHQiH9oUFgVX0YwTp9QcNUofRFsKyZGvESMM4pukNT1BTcMq2GGwOYEw2KyNXgHR+3UKnCmgEtVM0jzohtiaKakPq6Kw8oXEvWEhTBVXwBZmCq6mm8JhYgrqFCwzSMHqaypRRvVQqbnuXeC8Mmr4rar0Ctkkn3iXGi4gnkoU7Z6mIFOJooqLYVr/rbmiPWwxMYKQjMOkfWiuCoYa16jvAgIXgcsKKNXTxr3wERSEeZzFKyD2zUPO+BiAS/MYNQXUyeZBbQoKojSvAkurAomzZcNNxYXx6NRQe0zONm4E2hamOGI44+O7PjaAxL2LYwP8/v9jAzw2pGkRy3A3jFPG7DhfAIPsdO4mlTWDBiCn1BGuNwy2JoEcm4IbPJxI0a2N+N0wRXiHEXNP0qoQeiFtpC0lbwBNtubLmNeobZVZ8IgFHWN8c+QMF8npqGftFQWo+DMMt/7mcnv3+xELbNbZz33G137sTzwm39Cdk7/GM/mAGEQ8xQedO0Nfqlf5Avt66IvTKs99K96QDyPfOHZEW/L/eI36lrw9vN7Z3h7u709Xvuf/+ztee3W6H+aPvwE=);lineShape=1;strokeColor=#31FF56;" vertex="1" parent="1">
          <mxGeometry x="434.30267514908655" y="1073.539582617585" width="94.74376219909952" height="40.65117440260224" as="geometry" />
        </mxCell>
        <mxCell id="Pv8cgQ9Iaqcld1MLqGOb-38" value="" style="shape=stencil(7VrJbls5EPwaXQnuyznJ/EeAOGNhHDtwPFn+fooQqDwW/eqNDrn5pjhdYrOXYi86hXff7j9+vTt5++3l+emfux/nTy/3p/D+5P358f7u+fyCT6fw4RTefX56vvv7+enfx0+Xf3/92CX7py9P3/s3/LzgSjIud5S3vy5/qSZf/vDXRf7h/LiVj6aVST4ZW6R8tZN8MEHL0/d7k5Q+ycQ0yTtTmpDPxgeSd17IF+Pn77cmVSFfTcwk762Qb0Pd3/JWyFeoy/pIeW9ivUGfGkxmfdR9azTF3WDPCn+10//3F+RvioeajZv9q+MN8n6OT+eNcxJg4wwopoabbgCV1AkAzC5GTqYDlWYfhDCifBcwB0UopkRt1dlr0ZmqVWJAMU37Oc13SF4Hnjdt9kPCCeLSyPw2ezpHY9M+IFdO/dxME7Gd/QiEAShXJV8FpLIAkskiWmETO5u1841I5xhMnK0EuwVh1pBZJWR4FVYKjgm1gjKFp5HwxEi1GSvM6vBEFT7BqWg1gZ40HCkOCKZm9kIVN3CcbgUcLCIPjDv7AIFXhEnxbbM+2UoOu74A10xoJgj7QB9KtWuk78jXJdO8cpipVCJkSXiBIyglmfrXgNzIW/EmZJP9LA/7K2rhkuJA3i0O7gqJgHCrhXBjBQhMRTCpcpmLw+IbnzkN4LqujrTby0qOoma88AIAdOnOv4K78K4GYker/QDHzSeAHbNIBHetdTfsqPgXAGbHZpy4A2K7zWTXnMkqF0DPc7A2L4M7RuMrA5wAINQoNKCSiqWcRm2wuXQSZkUNnwhQJAD8XObw7uWAuAOumGfKO3BcW6zUC2ORcS2NcmUDSIL0Gq5YGKDqkVaZxnrtrU5oJtMdolTJ2eVl6HYVjsARhRIia0dUjm+4OoochZn4hDqI5HVAZp6pukOFq9MCUC0Ggql6BiQFcJyjAFh1aWvcYiXZArTlDnkUNXuAQCekwZ57AOrLEUwKgDswC4RBt3tmtUsGVRXfgVvJnqPqhDRSeAsQTIbgs0uOFh3e1M1X3U4igRgQdXijpSBAGq3TLoAcl2WzB0AgQNEn1CXjdO+GFGX6rppm8iskIB+IxCVoc7KcwcNPwYfoUg81mj0qEhFdXuR0r6fo3cULoFoxVFj07jbJGuisMk0arB729E4g8RFqNoFCNJJOuuqLozDf+CGq6mQUO1seEwpFbvVKk8800nfpuNX4CSS21KAHrdhba3Vra6XGPG+t1emPtFY0xM/+CJBoFnag0jUst4kmHNeHJLNZ+/xNZM4KQFdg1RwJjwipVMfseq+1Ij7tKolkC8vLic4miBNiHRX/ZmKohmcpMH/lIsfziJyyDDEVAeRl+oxYUkUVeuy8UICipBJ4HJacHFfDiLTCiEX2MSVyfXEwfS4LjR3Mt/vWibYGeoLeAfNDeDCjf2WvpbcA/Q60KNF7hm4lKhf0JuNtNXe8muPV2dtqbpL/s6u5xK2RXjVDnvylBwWQz7M+Ta4J6rKHQHUi9xCRly/uWn/ueZg94GQT0pc5iQFZtf1uUMIGoJry0njieQSo3CIcqIQ0ZprQlwZPsJW0WUFE1G4eOK6sI1IZGTf/iOJQHh9+/2Lj8/nh4fKDj+3/8y888KfLr0PCh/8A);lineShape=1;strokeColor=#31FF56;" vertex="1" parent="1">
          <mxGeometry x="382.47009270071976" y="1232.4100967136978" width="64.03775436450132" height="106.9255986444648" as="geometry" />
        </mxCell>
        <mxCell id="Pv8cgQ9Iaqcld1MLqGOb-39" value="" style="shape=stencil(lVrLchw3DPyavaIIPkDy7Dj/4SrLkSqK5JKVxP77YLLF8bC501u+rVbADAk2Gg1wL+nDt8dPXx8uMXx7f3v98+Hfp8/vj5f02yXGp5fHh7end/90SR8v6cOX17eHP95e/375fP3766fNcvv01+s/2xO+X/2qaNmcYvhx/UKbxPr/N79f7Z+fXg72RaxP9jFItnP7LC3M9v5NYfY5z/ZtrPDEXutkn1R6OLdP0ufnJ5PQmL21yT4HaWS/SUqa7Yu0zOzrbF+CVBL/LNFm+yI9sfMKc3yMP98kzvs1fwKJfxWLs32TRtbTRef9VpVKnq9Bus4OO0RuOyRJ8w5qlcLeYFLmkDYV1XOHDfFzTFuW3omDh3DeQ2sjLW47dKnzHrpyFO2HtDt4YkQCo2UPvQzk3nYwTLTuUCGbLnEs4OBgDKlOPAEdKklNy2LrkoiDQy1l3HQkJ+3IaTM0uqOLYKmlZUkeaObQkO9aHfi9nT8e1jlKDj4l0HAg5BlLLQxOu+1QkCI9DErQuh3THKXKo9TroNydNDrfg438OrISYxnP6XkPphLYHspgxZ1XbRzlWVjLvCQHfCSFwZEDzJcrX5JKmRMoK6X61gdHHGobq4UOPiD7FCWRfGiGbB/3pL3t4MV+Zr6tgLE3RKmLvmDn4GBO8xu00oLuYI7gsGuC2w5J8rxpr0mMva2h5uFBsoQFyGiMSpUOwKA8WRbayxJYbVg1FS0NjrICMJJEnu/haB3sI7P32ofrUbJfLYihxBWDHyeunxXbuoaT6YuC0bxTaMVmeHZJXN8BmuOd1di8eI8Wq8qGOsFPIzMwj25gt3dKIbToUAe9n+70Hw0YKNNKUFAvb6dF+xVb+xWSjAlzcUtGEv80RNPBntX7iEpw6xjI8+PSP0VaNPx0YL9eZOh6QF27PYt/REHkfK60f1LAZx8IPOufFnu2HldDkC9tZP9ZfrXl+YQcCvaLbl9ovsB+PT6M/A2L0RZ/JpIlA94iXb8Ntjnih8anL/hkxbEs/LCfyNn8YM0vmr8wz/g5gTjBD8YnD+l4gue+8BXt/XAecK/YjdJ55E/WKv6ivS75YlT9LNpBOT/r0sRR+KvYfFx51O6T0wVJvEuDk0odDMypcAiDWod9GNOuU6ERwZ71n9tqG9izDsCFEsw+AuW2tMhzt2fRzKj/A6+9S0fiAWNCtSGZKBVitgjPSGdJ3jVC/Hmu14zgr7Q5rw3bf0dIIQfcluqreczfbjuUAchD98LoZJsOAL95vWYDBu+sgeD2Sc7ttnNVw4Eqyh6HINwdyr2JhM5hzbzmbROJ+Q258CFJRaAWnsl9H1oexqrGltSXuWegdUzDnuvHGQbr/zuWGsc73URfJp+ZzzDaMoztgzHPxiqgVlqio9K+F4vdwWiKOlwTTNzC6BDOJgyAvr7362dJDQMD3xVjparYEnjcEhuhL3cenWtY50ngvQNazoarIeMrmIz1hOmGDoXVhrBMlBu/+MjITJ6F7GbIqxuMDT3P2VXPehezDUNZzi2DhsZPztkabrccXsbuDhRPbrs7IOhrNy4nWE7bjZRmYM2jIO/24c71E1Ros1FTT/QayH1TigpFFG1jVYLTgHLTNYcSCbCQai50/QHHJY5zNg4I2E6kQs8rYBIkpeOPgOMYlySM7vabqUM7waZJusxfA63+y5B6aw/o9SsoME8hJtmWeyq3p9S4zF5ds9LnQx1Xfg+2jJ800/GELeOzTMdzy8XFRjF0tgiKXO9dv5aA9kysLde1fr6MQiv2Z25fmcSWApWs0paiYvV2ezZu+9WfK9y39w8/fxvx5en5+frTiuP/8bcU/tX1dxjp438=);lineShape=1;strokeColor=#31FF56;" vertex="1" parent="1">
          <mxGeometry x="244.1134521654658" y="1291.5823144573637" width="189.08645190843194" height="133.43428587253206" as="geometry" />
        </mxCell>
        <mxCell id="Pv8cgQ9Iaqcld1MLqGOb-40" value="" style="shape=stencil(7VnJbh05DPyadyUkUZSoc5b/CBBn/DAeO3CcWf5+2POgtkR1lxFgDjnk9paSWmRxKaov/O7b/aevd5cUvr08P/1+99f188v9hd9fUro+3t89X1/s04U/XPjdl6fnu9+en74/fr59//ppQ26f/nj6c9vh79u6RK1ti1L45/ZDpVT+++HjDf5wfRzgMVINE56p1XN8ihTyhI+k8RzPgSJP+EAF4Rtxc/gI8LlRjg4fwjleGok6fJJzfFHK2eFrO8dXoabOPzWd41WoyITPxOD8beErmoPAgRpTmB0UlQQ8QQvV2eKkPaaOTVZvAjMpsNl8Gl3MVRgUYk6dj5QDKWAtM3GZFzAJCGuOVOYwzfZMkDcbrXOcZrMKGB2NV0e0hTowWn0iGD4C3izPk8ejTCieBDOgABdJz8PRYLD/Hsc7vhJnQEHPkx1fKDPCZ7e/vIH3IZG7h0/wxe2/73Bib3TnT5RBQGTSOuMtBgFeek4NeMxvc3yFbtFJvAX1+Az4iu0gi1lBypTO/76gwF7DRlDyCxRQbB4P7BdUwJmE7vLBhgRssPaRZtZYoVfLvt/oVvCEuuYZU0K8ReKldKFa10L/e6gUGXipFZLZS4ILfLP95tpVIkVwpBj2rr2vUNiXm7l9TudasBF7degLzHEZ5L8238l17+3HC9gHk+5i45hqC865JbT0VuN04s6sQk8oC9WtkqCESBRnt5qjFVW9TMEtaF0OHCd18X1wIP+4bjRfN+wRDbjJNLAuC1CpNxHsrS6wlLGvApZTiLjke4NFBiOx4GnTClPaOsccFxaqFal4L2rVaIS9sLrzJKpIsPmCYbmGzlMP8IgwyyvxeJQHRrCbEswAJEaihZDzqAlIFELcBelAAdLlpgejKy+4Gx48QWFzW22wKEUKZvPSXIRt2kDNzWhweZbgA4zm6PECaoUc4CPYn7s/hvMnoBfWNGhwrDBvqGcAtrUljQv0z1omMpSESxmyIEUzSKY286u7YDqRkK6Obi0T+Mdahf4IPgavad84kIV0lsXi/3VBoeRs3hvWMWfZ67UtLZGqFT/oaINCxFRtWcI0oul3b4/DkdCoKbVrrbEWgSOV7LW/VbsEnlBN9K4dBIVS9OWx4vJoJ3bqq8Y+EZ8taHO1KALdasmos4IUhcRt+m42WjKsd3biMPOw6TGk77Lva8Y9up4ypp0Ktik+IH3XfE7nfbA8i1Y/vxRYBGzKk3UBniNdI7QFsPvLMoNVzPSvq5dfVy8/89UL+6Er79Lt7K7GKSN7QkU5tijs7Z4DNang64T1OVQnrLLJnGScYNoX7pPrcC+d0VBhWmKmbSMeld/m9ZH5DeWlBl+JNs0NEqHmPlYOt/eoOJbqJ7sGM1mW1ycKBzUrVO7eW7HibL0Jv+IVZXL0kx2+9N5KS/EOgu+vxIeRTTENedS/SrAd0Cgu/p7f8MhDeTmPwBjiXqkGPIrq5G/7DB/AeZaZ7vVFxCE++BnHio0AxkK/nBxSQECELhd9EV/DhX4xMWYM3N8FUIOtKS5ClgTC25zwFcqtH3wZ+ybcPry+9/1yfXi4vTYe//fvie2n2ztm/vAv);lineShape=1;strokeColor=#31FF56;" vertex="1" parent="1">
          <mxGeometry x="288.04647264636833" y="1318.5477813736734" width="66.2412299789268" height="74.86135639431913" as="geometry" />
        </mxCell>
        <mxCell id="Pv8cgQ9Iaqcld1MLqGOb-41" value="" style="shape=stencil(nVhbbhsxDDyNfwm9RX2n6T0CxGmMpnHguK/bl4IhecnNjtv+OTYnenA4HGoX796fH972u+Dez6fj1/3Pw+P5eRc/7UI4vD7vT4ezfNrF+128ezqe9l9Ox++vj5e/3x56ZP/07fij/4dfF1xrVHJHBff78g0TX774fIl/Obwu4yu5puJ9o1oBIFLSC0RHqW0DmClrQHLkHAAEYr2lVMY3HwJqoaAB2VOK24DC1JIGJGoFABy1oAGVAgDkQNFrAFNJ24AUqRiAZDJsA2IiZgWQTTpw6FDsCgIIIA9CBO9WAAYASVy1gIgybS+px3twqxSijfeAq2Fsd5G1CO7UW2oL8RyID+PCZylkyjA+6QvtJwL3I6TU8ZKSDM4rlDD7kf8AEpbIG84Jz4FYRKstxcP7TKv4NjL4cSFT1VVWM3lQZV7Sr+u48jjSFkOrvlHGWuQzFS0t7MehPgYwpaIBIgVAvIR03qwQyYMVehaSBVS0gpBSlwEnWMehrbaU4bUKoBQLQESVluG0UnChCjItgGjOMNvKFiDrFZq7tYKRR+l0SFyubW8C5NCASwIIOnHSfDNS7Gb1VLq7A01EAClYACOB5FHvC0BDW+JxxAUgIMljqzFyaEYA+TnZa2WQuK4aZkuR8g2A2ZLHFVdtqxXyIUPSD23oLTYLFRBbtkoBVVxxpvX0EsVcMokTQMQA45F42qxNejd76IbrIWu2sqyJV7AlKtqKa9pYz5aoYtWIhnyFGshDnO1jAnhscjMPmkvdsd8QY31o73DP+g9Etuoqp8iI4HGlfbMKt7qcEfw+eCArJt6w2kwU3KntlgocAsQLREOODN1SWy0gfgukuqx0KcD+kIYXXKhMg24ymEkvwsnNjV+nWSqwSa+oXQIc9KQfGjcZsLcagjXdaoM+RoyX3r/QFt+PLQPcSNKQ6BkvpEUz3srNT3+/Nb3o/x89dCSJstai5LCpomTiediBrf3o+xT3j/i8mtb6lI3c+WoczHPA+suBswOQmE5JWABQU+tDc7EAj8dyI9dySagx51VVpjZGiK2nBdZdUNKG+mxhW8cpw6lNytyZLeGRRCaWpFeIFXZBafTmxUaojQa9qxIuaseDLXUPqMkt7EKjszQw09Ik0Ujc2SbawVFe4tmbeI/ip3O/xiNx7Lba7gdNI23l78QsoQw0O9j6YX224k0CwpCPrXgzWcTRbjdG+VW7SXA4atMrzsqkig/QzOMR5HQ/sK7LCp8I//nh9Wa8fLi+8j4dXl4uj8TL3+2rsHx1eVGO938A);lineShape=1;strokeColor=#31FF56;" vertex="1" parent="1">
          <mxGeometry x="43.16149026285484" y="1384.6343343228436" width="239.86043099969456" height="47.16585638429024" as="geometry" />
        </mxCell>
        <mxCell id="Pv8cgQ9Iaqcld1MLqGOb-42" value="" style="shape=stencil(lVnZchs5DPwavaJIguDxnM3+R6rirFXrtVOO9/r77VkVRyKoaVXeZJmtIYBG45iTfvrx/OX70ymFHx/vb78//X3++vF80l9OKZ1fn5/ezx/4dNLPJ/307e396bf3tz9fv17+/v5lO7l9+uPtr+0X/rngYpPcN1QK/16+SUmS/f/NrxfAy/n1FlAWgEntBJAl1RnQxTIB4AJtAqiKJQIIojoDqvR4DIDNYTqfkzRicxGbLchNYj0+n6XN502llOPzKnk22Jp04qHkQ1BUOglBkjDfp/D7IwCzf2qURu6fpMT5vI2IHNib5vvXJkr9afPvt0jPF0llPp8lUz6UPJ+vgyH3CRelzw7qQTJxUDRps8VdJZAnpCAlzQCQilGiSJht6EUiAWiS2D2gsaD1oQs7oNIn5DJ04RZAvGRZevFX6iTxQXtdAIEQAzzO2bs1MwCMnqnXkUxEKpoN5dm51KgNPQ4n7gATI9TAjZ1bW6Jcgk/qnP5It0psQJgc+ZDPLH8AqLOAwdFM8ADQGVCKFG6Dk+wC0WduzT4O0OBM6I2EdKKX90p3FLgyV52MpCVcgka4SCsqJ7EBzGlzxmmkXIJs2fwESFtvBFB8ZYCOKAkchNSJAMS8Ere2RSpTpAmEjAszNdCi0Jw2KXM+QG0jMRrc7LOX0HEYKyd1tB87IIxL3gckqS6nJZC4WR3k39ktkTjV0jBwp55Ukp+bEruOihIvL9RWGjO0W2E+Dwewfkd9w/bgfPD+1NFT3i+Gu7uv/qH9S/VloUnixbbOWYAml3WoWwc5qxE4mjggqgdUZjKywF0JP8GeYMsTyqh19wHZd3kAMFYAEM3bwKoCotqCBwQOcHmDOCgLHAaJuWGI+IbZgERxT0h02kl7J34DYLkML7nKhu6yMBuyV1QAlKgRIp11AXAueYGMI/ZHbHV9GIxmAglAqYtbmZfQmzoJ3oemwxR1cchcM8pCb+MtevFz7UZv5iVbbChDN48AGjzgQYo6nY+8kACQltrZ2BN0IZ+Naf0wRVep5Am0puiDK7liBQB1608D8kiXfQigHckWhtlJSCgmMjZGu2s57Ix5ze8LAtUklE8zd56teNbyjHaHRADlP0Z/ntwf7YXT+UA5lOt4/PU8W4+gPTJHUto2WxtV5tpesCqCsdMtqIymZWmj1u/jEZWimrx/Op3X6tqOJGpAC3782rKYdfG6APgGaRsslrY/srm5+tl/0yZCotZ9z7Z5lc2cwc8Jui9ZjgY8t8bTTOcEjJB55ql2WhG6LX2q0aq2rWicsqTRWd4HNB84e3Cl7rUFkzmLQwzBh3obsNjg3L3Cg8Cs44ERbjQHgdm8021ZkeyF7jDUs9WYvZnkgd/ZbZ4iXWpjrDW3DMtjqDmaUsuyPaMqo34rDL+xlaGZDxwi82iM7B7A1gvbytAJceClQdOyxuzUTdvLhwUQWH8RfLGCXxuRgesMsgNQzokMxDCG65tlL+u3q994QKoSuRHaEbdiLIO+R+t8R26l9T/41RnIy1ZnYVnnG/XoXcEgpAg+AKXSOTL44aIol7DB+l0jK+0XdAzWNyLMlsjZ9/1IJP66ybXMmc9rTcxtdwrlT1z6QY20EqKdcAvh9OAFyWJy4m/AMKc0V/4DXeLFOnYPu7R0GjQAXBZEriwAmHoAK1MA+JGzj0njPqB5sduuxGxoy8jZx4ulI0Be3cpsaH4KBiCz18HNJw8AbFzbAK5vi+NN1CEgeQBrwzYb1AM6j8NPvgN/DMCH6yv3b+eXl8sb+9v/+1f0+Oryel8//wc=);lineShape=1;strokeColor=#31FF56;" vertex="1" parent="1">
          <mxGeometry x="-143.55405680798822" y="1317.2087014104332" width="227.57580542660625" height="152.98810509169397" as="geometry" />
        </mxCell>
        <mxCell id="Pv8cgQ9Iaqcld1MLqGOb-43" value="" style="shape=stencil(5VjLbtswEPwaXxckl89zmv5HgDiN0TQOnPT19x3VoCKurGkDtJf2JlsccR+zs0vu9Or5/uZpvwvu+eV0/Lj/erh9ud/pu10Ih8f7/enwgqedXu/06u542n84HT8/3p5/P91MK6enT8cv0xe+nXGhSnETKrjv53+ypPTzj/fn9Q+Hx+X6LC4P632UFAhAJeoACEk828GJH3fQKKrbABjQwgCIXqonOxQpo0kKp+s2IDqp2QIaASSVOkZViwTiQ47iVyaxHUoSjSMgSSU7lCDOmOQkNQLw1unQ+ie2dlA/AkrP/WWAio4mgRrU6WjDGmJP5WVAtuwGHQshX6nSVgBPnK5eQhkBgZKvquRqAY0UUJ1jsjApMpOquGijFNgOTUq0edC8DWhuZRICTXZoXnIbAVUCyUMDl8awgt6OmaTd4oUIFMKlFi29Y5VMuNSyzXTKNA+tdNmapVUlRQJATEbyFdcrZAuQxjyUIp7s4J2zKoDABRZXcGMMU0s9Dps2GQBsYtyA9o5hwicyA0BcR69hJAVAvkf2LeJwuSKK1GK3YEKDIvXROlFJJmqwJYQwRVakvvu4SERmQuMtmxA4FiYAinEaezIf1FYElKSSmkOUTKqhVawi8NqUEDJTWAl5qxsAJEbXuNoB8smUKVsywWlWcxMRxrYIPhZW1c0qE9SQdWoAWhoBkVIDADPETUXIfMD0YthaxfOwWqebKAurt4138opToyYLqCRKUx9tFhCYCOiq4go3CT4UG9bAAcFIHzo18+HNAGdnAXQIJgIFUjqGFXMg63KYmMqY6Tx31suA0s8Lcx+t9ECAUddMTMnxqQ+JG7kUlUbpH5mNixmx/tPZWFk9/JnZmAnZ35+NvVVvcImOZGqdxok6Mrl3lq0YpjMjX7Pki5ze0Agza2D6ZvcOOFGbKAFQSVjjXMELQCO6hDS1MUqxUXr7aPvDZBLZYTV7R5z6STms0+aoy7lPa79ZPd51/+a5ONDDAF5bj/tccHn9akCcXdqKqLnU8LTh+mRp5/n30XpGXjuqFr71kfx1Pft+mFvlYj1h0CRW0axnhTzdnFl7Kr+sM8181pqti7E6fj/QaTuszp/aJ9Gt9ebklqjSvfly8pfr8fB6E3p3eHg4X6Qu39ubU/x1vnXV6x8=);lineShape=1;strokeColor=#31FF56;" vertex="1" parent="1">
          <mxGeometry x="-57.85893756755786" y="1366.0237844299581" width="44.48852165647926" height="67.280590788165" as="geometry" />
        </mxCell>
        <mxCell id="Pv8cgQ9Iaqcld1MLqGOb-46" value="" style="shape=stencil(7VnJcls3EPwaXqewL2fH+Q9XWY5YUSSXrHj5+wxC45nTeK8Z3Vyu3ChqmhjM0rPgFN98un/38e4U3KeX56c/776c37/cn+JvpxDOj/d3z+cX/XSKb0/xzYen57s/np/+fnx/+fvjuyE5Pv319Hn8wtcLriepcaCC+/b9my41/PvN7xfAw/nxCtCa9GwBTVwmgCC5WEAR144BNUkLFhAllWNAKRKrBThJ6RiQixSrUivS3DEgKcBZQJBCLh2rFG8AtUkkKoUu0apUo3Tih+Cl2EuX7Sd2AT5Jt54u6nuiUp8Kb/JOArlzlmCvnLM04me1YLfyXiqR9+jl1CT0Y3knxYZRyhKpvLf2SUEalXc2JpKj+juJ1j6xUfssDo6F6pPwvlH9S+SbVNAnSCX+9RqQ1mHRSfbEwU66jWk90zFAk2RNqkH13en7aVamAhsgUB+nNMltAnyXRJyQA2aBVy5g3KJpY++gieciYa+Ed/BeGrl0aQvAUUJVQLKXbuKJG4qX3mzmU3bMVTxksnTy+5rnHTJnfnHEvtXGUZwVYl8+4H0Dl/eSM8hn4gDN89ZBPhDmVflk7en5fd0Sc5JJBI3f7yDvuT7d2kcvRPw17NNBnuX9sH8DeWqfKBn1cTyJoXxvVLwvr3UovUa+YPzf0EdZDfUPJH6y3hcoYv7AvnzDfAm0ECujRMwXVujLQlmZ2kcbNA+tBy1MtaB/lXOJ/lX5BEjaUwLSA6C0aq1iFDp6K3sDn+c3RyYKliK0bjAblYoxdKPQaBMbFgDLyuHlhIDOwiJgAzVOIH7Tfg86dwUUQkRa+7xHQGCVo02i2gCNV9cqLSLgRu54sFKlHYLewYFKZZ55ZCVk30JPUD+EBeDJHdTTYVGJjVwjltxyAgu+Ogv2FSCz8O7Y7PuNNI8A0AuqH1iRrVtPc+VpFkt6AkZr4wnU5lR5Fa1sRlOztiVF2axcMo4II0VZLEWsJLcAHoeWoRJvT/PCGmxs1ARKfjErI4E6qffacRywExosRRtOjgpgc8WrAWrWBFbKdKOgjqtQH+I88yg0cEzw0wyHsQRWcrMMH7GGsyqpG3hkVGskLcOMu5cuI8/QOuqSwESRj7PaRdrQ/gm7eNYF/9/F/9pdvF9oi+4qxtLR6rONqUccBPF5cwvacKpm8tWjfKasWzOuHW52/cX6q9N80Z68Qn55WplGDwKASD08SBpKWebtaVlKmRY30nglraU2hjSIKiOhpdCETcn9jVfExbK6gW0dw+IG9QPjIdU4AU8HusBSIwLxxjQXQvsAj5kc+cJI2wHr6NhpaSoYSYPrWReFlWxsfrm81V+5iVFFwfZjcA1LHWQW5Ro2MGsnAJNd1vaCrZbTAuhze7wP0EnRqjTaC7bKLVjNxtqStAcjZmzqKCGwE9RHwd6h6mTH3ic8ntB4RR7Ntc21lmckHs0sYKXW5/i5D+jLy1Xgj2kVZ8eeqFl7xH6/F3rp3rFt7PyZRQG43dGRgWSDAtpyAuuVvVueWhTBHsf0CNjv6DesmRqPngUBbIj/8e8rQCGcpBq3RSVG3H2bmq4AbG3c6+KITmdyjYQK5c3xnmq83K5HMLsqDy2XYJu5V79H/weAfvjx/P3h/PBweT2//j8+l+tXl6f2+PYf);lineShape=1;strokeColor=#31FF56;" vertex="1" parent="1">
          <mxGeometry x="-176.4027408629263" y="1110.547868808284" width="78.16948838242374" height="245.55879169302293" as="geometry" />
        </mxCell>
        <mxCell id="Pv8cgQ9Iaqcld1MLqGOb-47" value="" style="shape=stencil(7VnLbhw5DPyauRKSSEnUOcn+R4A460EcO3Ccffz9UjtRZ0SNylhgDznkNm6TLZIqFh994jdf799/uTul8PXl+enT3Z/nDy/3J357Sun8eH/3fH6xXyd+d+I3H5+e735/fvr2+OHy95f3XbL/+vz0R3/DXxe9SDV3pRT+/v5AKdZ/n/x2kX84P17JN4pplo/Uwl4+FgrzAZUEyCcm4UleKAF7OFGSSd4e8F5eIpX5/ZFi3MvnRKyTfKAM7C9MGp08A/urkCzywB5lql4+AXtaIK1OPiB5puz9/X7jt+XzeN2VPQrkCzE7+SpAvlKe/Y0kDcgrSXF4EGSPAXq2h6kUKC9zPIVaxvJzPAuOj9kz49kCgPJR/ft1ZPQ2nvP7G45/GfA94o8ToANCvEJDHlvAF0qJwCRNVOcrjkIZ+Fx5uHgoGCsBkiiJsjuhUgROZ2MV8QoVwNRoKDTPuwXkPdsJTqERA6cNl2VOzJ7J4ISYFyY9vLqtYCfM0DMjBZ0gVF2uYR+6SbMPUgYd3FZQ4hlLmSE0DP2u3JhCAGg1i+PMRxkTvEHDJahkGNa8MJgkiKWSSZ1CgPCulXi+ac6wiKspzOBjGWVoxxp5VpBXaLt5mrG4wZsOwReeYpUEEVMjnb0uOmr7zgmXQbVQA07ogg0VSN7V0DfD1cp1Q8TURrE5FApFgO8SKTkmC7gBMHTyrNHvBlREYd/hWU1KoGUwKKTFCQEZYXCOziSBTZ4lqc451+Joy3YnyGySHsSw80FnbOiRVLso1TkjNFMF2DCmSzMzGZgUKajHtymg0m4ZxtmbxADfnUtnuGqBPuQ8quahoJA3TKHNTtvFBYClruAyiAd97hSCgwa+h+707IO1UIhnelidD43CKxcXvUJFCVR8WTSFDJisg29mV0vRgkyysVC90wH1M2Fk8FVYEc3cSNE0+sAtCTgf8OTTaWZWsBRF9N2JzCkUTGTZz4aaYfMgZsBMZJaiBWVc8N16P+F/VdBbPoAEKmWJUhwd/27CzbNCzbDIaRjXdChEuAOwIDoiKzIa+J2Cg0auo3HcjRwOfJa0KEXNYt9XpkGet8MqfgoypkKDollcnYLiRnTZBFhzgOhexEOjLzfQLiYuChWScVyHY4UzytJgWdhQmeYB5SNGeH4InictY1HbGpYJqI1W5bbDfrjnAMcT9suJPvShrjj5ymDDN2JVO8ElZ4M9sdnr2xhquHULrovBqA5+vVUhBZclomU0vLu8zH59o4gpjm3Wj/UQSrJf67Nf67OffH3WR8zoT0BNiC6jSzy6jG3F90MnVDAWj4vTcHRhv6syp+Haf+ntjCpRU87ilyqm0ICCAc01tFEgVGPxqRDxzLl8ekkZ35tHkuUO+vRSSJOXV5AL2VOLhQDNauJrU38/sP+I97X94Aai72/MQrQ3O/LqkJdxhRt512UmhkuFMKJxyOMJZ1loJdyfmT3rghfK67JBRkvt//pp8HV5+/HjO+TH88PD5TPm9f/9d0t7dPnmye/+AQ==);lineShape=1;strokeColor=#31FF56;" vertex="1" parent="1">
          <mxGeometry x="-59.919865833260246" y="1058.2450431752527" width="59.88212375506578" height="64.24398911822777" as="geometry" />
        </mxCell>
        <mxCell id="Pv8cgQ9Iaqcld1MLqGOb-48" value="" style="shape=stencil(lVpJchs5EHwNrxXYCzjbnn84wvKIYVlyyJrt91MYDpqNBDtp3Siqklhqy8ruU/zw8/Hzj4dTcD/fXl++Pfx1/vL2eIofTyGcnx8fXs9v9ukUP53ih68vrw+/v7788fzl8vePz92yf/r+8mf/hb8vOF8klY4K7p//v0nS/H/f/HYBPJ2f94Aovs4AldIIwImPEyAE8XoMqBLbbK8S8rG94gmik1qP7YvUeT8xSSYnthvys329Y+90sk9B1B3bZ2l5ti+Sub2b7LOTRO3rfJ85iScOy8P/m72KEn+Z/Xz/JYny+5z3o05yYf4tYJ8lpGP7NqJrs290PxagGiZADcMlRykAHqtZMgMUafOWqkokgOCkwZaaBOJjc0KZndDsVCQJopeYZkAY39wGKKZNi1IIICWMi5akED9kKwuwpSwpEECVVhFQyS0V+73Zcc2SlQDUSwkI8OQMquIKbqmRFaqXqsuhyQoWaprwWhNJn7ZVh52nHcl/+3eBaG2SSAGwQKhLPji2pYTBp3WseQRIc/BpoqHRtpK+FaUmhWRcB8yxZFXszpZghdwkRwqAxpkzDT671gyF29PgM8dBZ0gqnh3aS5i3lDwF1IqFLOaxyaNodXMCWXun+WC9EtiClTZyrfUWvYgkNHS7k43ANHEsp7d2uQHKqCO3AQ47lnWMwhjJuiXzDDm0xSZcq2UoW8BhpayUguXFbWU0pNv2frSCq70S+1RHN7va3+klir/PWokxtLrYkzCNUbTgeYmHjWFm4Bij2d1uzxWD1EgH67YW9FAhLYQy8bDfAmAX1ZT11FGttrzhW/ILzzYAy33LkqgISCSqfUbmb2eobIWNUPxiKhvAA0D5CgvV8zxS+woA4P3cJ+y29k0kFbL/Hng6UgLQqxUA7vBbxeg2QGWOq6NE77bkSf6bm3JBgBI/WOSEjLekLOMcViS7t0bO0AHLXMvGpJ4ucEuVzmE9IWFLjeeDVbEl41jZ7sEcEHBnMMFu6yiJsUtUt2yJh3ddDh3ZCmkMd7trDazyReQkXin7tBXcEhqVn2HVSBiZtN9DxhCpBPB+QBv5dSUATPPonAgb7p3+E0D0GNF+1OAK5Kd44gNruGnev6M+i0sqOMqdjTBUB/aeRJ0REui3jmskHoPOqgGbbbcIu9qz3tlnCahGEsj9FKvo8/4D9VdZRa3BEG/bt5VQ0cE5LjMkpS+6kAtjwIkEqNF+mHU8nwhrWjoI52xVl8HCU93PpmSsjfnevAZcwbKYToQJFZIYJDMpLCPJi1whaYpTbQpcXahYuZL1WaYuLNQ8u3Gq24CGoZoT1UcNAGTesompbQZYFUwuaW/VZycvcI1xQWiiGdE3NR9bG5dtGmpVNfLpXzGFmqPMs0se0HQ2xn6UETAIm/cdy+qCbcEAjQECJmm/BlLo+/SfEMCed3QJ0C0AcuiyTjGON6tcUT+7RuRR96nLIRh9tnYIUpIBAhuIdegPO0coudfoUKHr4cUYw6IBGoDObkvhsOhjIoNfqmWLdASwmRwP7Wm1VKxMFvCMbmckbRbvbPqMeAALd/bkw+OA0dsq2Y8bLXaz91ToXasef9LjUAzvT5Lofjw82Uq0NTi8H2slbFRwSGpToTLbMuFZM2Rj7aL7WRop9ZeHJ5eRz3f4VKiLqWxERfHCIpCV37yQ+Eo5lS5TfB7F8ijBcPK6IyzEIeXudDPHAfg4har4nTRCYaQZ4JcUbjTD/Pq0ht9QwQM3KryaPcw5XVhk1EWXx/eOMv8u+4G24/nwq8gSPJ9F+gowwMdRCI4A4V3qkS+YON3vrNe8+62I+wD7cH0J4+v56enyDsf+//jShn11eeEjfvoX);lineShape=1;strokeColor=#31FF56;" vertex="1" parent="1">
          <mxGeometry x="-68.66424417334474" y="1032.4352709434756" width="134.3132577898204" height="116.79770042885366" as="geometry" />
        </mxCell>
        <mxCell id="Pv8cgQ9Iaqcld1MLqGOb-49" value="" style="shape=stencil(7VnLUhwxDPyavapsy88zSf6DKiBshQAF5PX3aWfLw1iz0xTHVHFbBsljS61WW3PQi+fby8frQ3DPL08P365/Ha9ebg/66RDC8f72+un4gl8H/XzQi5uHp+uvTw8/7q9Ofz9edsv+6/vDz77C75Ofig/dKbg/pwetSoj/nnw52d8d71f2XpKxV2ll395JTrO9kxiYffCTfS0SHLN3brZXydy+TfalSUnMvuTZPknUffsgfj5vcZLI+lFimexzEiXxrDZfqYmS9X2QFGcHFVeJA/I/RyhmSSSiIYmfQxTd2ORZBw2S5zcoouBJjACi+dChiSMgjVXS/AbEmZ0hJWkzjDpwSRryJqy+SCRhzdUWjo+0cAoq07wBicvEoY3CWhwW8J53iBarVWIjR2gjhgtWJZL1cWQ3r5/ofjIqvRr7wHKQLY6iZLZ+Fp25BdTF7Q2wdZDTnn2Y7QOPT7Yo9VIIqhEfiwjxbD9F6swtbrxwL18lGftA6hh4KMHYO2IPJtzak6IsCIcz9p7hOQzmX52XrV8snoMoWb96aTN+IqX2mmz88wjAeXswuello3metW9xgx90H3JgtHadC8yjIgmCvNu0154D4tGaPTOCVAgvtm0SGuVF6I2kc1VGUVI2EBDetJtKOyAUhM441UYTAeb186GjF8e4Hd3DtEylqgulYNo+HBKrfexYrQPTXSh+Q14x0Dx0NkrWgdJFHk1+FSV26M6/5gxuPNkl+JkgkTjGSDiDgXeHBgvrpqVp4T0BNW3Al2nJgSRNAcEhcdZT3byBCwsDDZxBSVihE6xDHYA/75AGEFZ5YCIeDiZxyPQbW2ozkwFLDN5d65gSDVRnI0rOoFV5TXvJGwfW/os7U9NUf9WN3lHaEPMiSVeHZh2xK6pNiVLJkDdhdZyX8hloKNPNAPMGfAwaOHQ2BYQwEPZGWJvZUpbKeOm9Dr0e5jygZRUS1rq5ReLO5JhDttfm3kVJpqE1zD0Y4oSJ4eY3Dlzd4p4fjFp9o+3mod5X6iQwfYUtzdDwnjMfgDBvCWqFkYaO9y+XeakfF56PC8//euFJVlB5iodS7fBLxw1oTzibnglOIVSNC5K9j/Aujoqv8wtAEY7phGRvFz7TuU6XX8aBz0MzlMiMISSBDbNStSSEqFIHbwVe4JoTqsDATv0YoJ0fyGXL7XjSiMPr+G0lLCKJUtiM/GKlW/JlXK0XauTjMq+D+hfseXoZ9m5gf3HAockZ2lhuaQY8qsVK1JJpDy9j+LCaTLMkFEvW9Q29aa/BaLiV1Y4NaAu0dJqdG7c8SmPHPs7x7KMAsp9my6BVPooYamNlz7pltfKjtaHC9ibxztonpgLteLbPSpiQlVytfSP6Kdnp1Gp6s+NgRGbfEHlBHPBa2VNasd0Y9kzPqZ0PIGFsdPTeT1dv2+PH63eym+Pd3ekz2/r/9rsaHp2+yennvw==);lineShape=1;strokeColor=#31FF56;" vertex="1" parent="1">
          <mxGeometry x="-1.4335103656981119" y="891.9841714451497" width="98.29221724699703" height="130.14750489445078" as="geometry" />
        </mxCell>
        <mxCell id="Pv8cgQ9Iaqcld1MLqGOb-50" value="" style="shape=stencil(7VnLbhw3EPyavTbYfPPsOP9hwHIkRJEMWXn9fWqy4HpZs1NCgBwSw7fVqGvIflaRc0rvvtx/+Hx3iuHL68vzz3e/P3x8vT+lH04xPjzd3708vOLXKb0/pXefnl/ufnp5/vXp4/nvzx82y+3XL8+/bW/444wLVuMGiuHP84PmFsvfT3482z8+PF3Z1/nfaV+TlXBs79HyWAClWHQB6BZ8AeRmVewoJot1BQQLUQCwQlgAKVoRKyS32hZALFbECilbWQHwqmYBqJbSCojWFWBYX52OFpX9zuf8ln1a85zM9X4Chcg8HdsjRU4OzyzetnfL6/tRuKLscrQxyN6bsM9WE9kH9X70Ae/HlX2zzu/Paj/DYqT4hHFsXwLny22ILituzvXT1ft9hvtrPYyu7df9FBkfDAUnfzFX1IYaA1DRWXk8LPfVg2JZTTqfPX5pmWpBAZLlNccFbS2apu6cxpMifKh431rVLVlTW2qW8wLous9qn2m6AJoVkWgA0rrCyJYUYFhaK28UOX0BiOuWRpW9jy1VWqFpAJqTVuiTtY7yUMnpIUkNeaVxAUATDIJaapUBquFq5Ch50COsYoL23Z5EbaCD4th5rYYAisk5rqqY0NSc6ibDhAajsY3aaIJ3AMhry6H6qhjEcJqovHfJJEgEVV+PM25H1efrqGxaXbTIXIuKV2KhISZrplFeQWS6BxtrfSOVShX2ylEqUQM68w8YQ21pBCZEUF4UeRjQdKsPWXcQ5lbvuxVEA6HUSGMAMETiUP1MipdU3gYMq7RCkqVx1fNXctvFZMISFKatp0S5wolEqe5SmmzTep0C6ClXqc47HsVgUisgip0BKhH98r4rgIorSLA7O60OJX0n6DHbFC129DwBinVRGwCQnilZUju25ASIcrhuzE+Z9jk9j8LKZ70wN3k7cc4sV/TRDaVBimkDqA7a5yFMyjgq7/1gUplGAxGjoEeD7rixS5xixY2WCXBJ5ZEPnXq6TVL6dwAY33T8BIs1QUE989SAcg0iD21waeBJFtMYpElyZmspxbs3haiS69+sEFWA70L0PyJEK4uHbbbpLWUSok2f8SvzLg6LXfkAhiLlmucB9TYgs2LaTrRiuGKUZuJd0Ki6R3A+v+aLvL590dInLV+uBer06uimiBoiFhnW7HxC9jIvXf+/d3Xq7ur7Xd03fVeHliFB36QshH1Z8+tZ6vktYWtAt4iqCo1TKl8Afeq+o5ahJk5FXqSlxIInJznqsAE+V/n06jYgzcvFqyNGE2XnbU6FKw2m+tid6xrjeginAQhrHiCyupK2NmiBqo9Vu49PTcr/xieY9gYbsLDY7FUdTe10Ze8qZ1wU8FdxOI47ge2Vv4FPnYi/upEIFncJVrcwu8sCiHLFNDsiaFHW9D/9uPi2PX58/ZL56eHx8fwh9Pr//OUTj85fTdP7vwA=);lineShape=1;strokeColor=#990000;" vertex="1" parent="1">
          <mxGeometry x="212.0904456184653" y="671.1863557264849" width="52.08720080220701" height="76.35261537903452" as="geometry" />
        </mxCell>
        <mxCell id="Pv8cgQ9Iaqcld1MLqGOb-51" value="" style="shape=stencil(lVfZctswDPwavWJI8MRzmv5HZuLUnrp2xnF6/H2hamQLULSdvMkS1sSxuySH9PC2f3rdDRzerpfz992vw/N1P6QvA/PhtN9dDld9GtLjkB5ezpfdt8v5/fQ8/X59GiPHpx/nn+M//J5wzFTziOLwZ3qTKMu/F1+n+OPhtIwXqsXExwgBqVCoBsCRWgUAocY2I6YEVsiJil1B3/QCAJWKraFkkggAQiwGULWqtA0o2hNbQ0skGQAKVQvohSRsA1qnWFeAtg3oTDl6QGQAaBQcQLsEBidadPcrFFCDFEp2Dr1SBZOWTuxS6pAaolxqBiCBMpiDArptq6hAADU0JVe0ZFxDmdl/A1TKgK2aQAgW0KiBlHRwxaWkXQJsVWpI8wAGk1by1epTQibQVC7dF43I17TrybeVOwBEKtbHtG8R1RBJHPmEBNWgpmLnoOQLSKJ1NpUFvRFbe5g9YiEgOLhC2Q5ulCiid6CwWoERIFNcSZRBSkqEZK1S6djA4FRx3pdUtGCFGMJKEJE6doHoABnat5LTjVpVizYISd7Jxj4gUX8WUJR9VkGLPmxtvNmJNBGDJXRrz250EW4pvPK+UecgJa7eaGqFVXOmZGsoCgC+oWcLx9esOyuoIeqoLf1SpgYUocedbiWkSaItRefqBqcZAUGEWS63ps5Hg43wYAvGDVppRw0DJuNsOMHc43xmufVmZsjHFKXmzpIzZT8Mr77UAJPp8z58D4/AJXSwJbh4ROaY50Yv/h8Rp87byz2+oHzEW0SEm4F+5uaaD6Xy2ZP/f+P14X7NeDkcj9MtZfndX0v01XSlSY9/AQ==);lineShape=1;strokeColor=#990000;" vertex="1" parent="1">
          <mxGeometry x="260.03577600227527" y="707.6854795547376" width="28.165454917348143" height="59.678000692690986" as="geometry" />
        </mxCell>
        <mxCell id="Pv8cgQ9Iaqcld1MLqGOb-52" value="" style="shape=stencil(7VrLktw2DPyauaJIgs+zH//hKq+zU9nsutZrJ/n7QJmiRmxKrfLJF9/mAYgg2AAaoC767tvjp68Pl+C+vb2+/Pnw9/Xz2+NF319CuD4/Prxe3+zTRT9c9N2Xl9eHP15fvj9/vn3/+mmRXD799fJjecI/N71WJeuiFdy/t1+8lxb+/+XjTeHp+rxVSJLyoNCkViIfxJVBvkjTY/m6/t3ls3hH5FU0DfKx72hXvlSUV0meyGtfvssHqeT5uYrzIB8jkVdxDeRDOZZPVUpGeeKflGb7NRN5L6WAfxzZb2z977v/XSLyWdJozwqofXmVOvqniDYi7yWM59skkuer4WEKgEocqklCHBUitUgDnrAv9IhDlQZH5iSQFcyFbTQprFGxr2CgBhDZsRCUmgEZUG1hT9zqq8RxD6rdb/sKGc9Bi3iSiBav1xF4nm7aB8mjl2KSwlbw4keTkhNPVmhSxoNOsft5P3dJDaN8kUJ8ZKllPLXsqT1F4uihHGmuKOJGB+XSk/d+7urWrvIGCmKPYWy0p1guIvYYJKB0RGmk1mQJ43mVIpna70dQV9efsJ8be2Vc5UM/8QN5wENNNJcm9E+15Er2O8lbsfUEP0kylG6zhwTAGh6rfJbIatP0fMMPq02SAsqzWmyZt6J8Y7VG2ogfYzsMbxGTnMkn+vwwyWdyXop4OJXXSZ7Zo1iKT/YbpvMtvZAcyMfJ/4k+XyPKMzyEXuW2eCP500kF/2snLwfybqxJzfcd7RcACSOeK7dHkXpUzlXSJN9o/i9I5ZZ4p/Ulgz+tHhF7vJPocQFGFq1CYoYz7sIUQmcNG5c6pqBIC4zwF5JDjRZEKBprmT1SqAkVPENFmspS4SYlzEOmkJhJVijbpECAbYTSTytUrgBcqKyE7UihjQdXGu3LjAAC6zWFysA3NU5WjQs3qUD4WDizc7BonOq3I/XGzgF6LVNgAW0KPqECq2gGjaTTCuzgVga02XRjJkXs1xcvMbfGXjM255BZiEZsiAqngTNzNwWaBKKUERpLF8+8lHoEb+OBmZSw610ijpmUsTafx3SbFAozqWCjbJsODEtryG8zH1uhTqOZJpntYWpADBonEYfp3tMO5OcVzK2QNVKveochCgF0mu6hS2juLOLiVKYbQ+s6gdrwctr6BgxRI1aMmFhhh0TWGmWGFY/BO0epW8bk3XjrFftQbLPlTMAdev3bUD16apM9jsaCYutoVIwhO/bGaUMl2VjT9jtRMXZiv6T1ovK/W6/frRd7fqJUKvSnbXKio/uFawnL0oxjK7Z2NZ6cb5ioIB3iTl1Fo42OYjxatVdqD065Yx/uHODfgzy/tolIJnKjw9KIE+VseCDyE4/NSvGZsbXOxiSI/QUH1inTeKnYWielI/SGHVdsdEa/zIZhmBz5MDngvVZ0HYOHTH9cQdNZTwdERX0fkOwrNGz3w0nSCpjlDCfMpPvfq4LnZX7isMtFAlnBtggc1vgaa280IvI8v6DTgheGTQqLTNeBs4Zmz5X78lPqShQXy6UFXmDSSK5InTgqkkdq4OhNT0p4a+D6MGJfvnb33eUps1S8hXH8UqJiGPChflEEhKNNkDVVMDrxnEortpYcb1booNQrZZZWSOH5ieLTCjt233ToaJ0CUo/ejR/JZ6B+/AWB1u/T771GHx0dKUBiNAU6pXTT4Nc0MruM3NVg9WYxaoxKqxAMdq3h2NEUWMU0heJQgVUcU4C2cnm1g68AbaXn8zFTwOQb6OV/q9OmA72B+vnXU84V7MP9bZgv16en28s02//x7Rn76fbmjX74Dw==);lineShape=1;strokeColor=#990000;" vertex="1" parent="1">
          <mxGeometry x="-31.93695152920509" y="683.6677322950409" width="248.283302361826" height="191.07169070243498" as="geometry" />
        </mxCell>
        <mxCell id="Pv8cgQ9Iaqcld1MLqGOb-53" value="" style="shape=stencil(7VrLbhw3EPyavRJ8s/vsOP9hwHK0iCIZspLYf5+erEgPizu1EJBLAN3kcdew2V39nD2lD9/uP329O0X/7eX56fe7v8+fX+5P6ZdTjOfH+7vn84v9dUofT+nDl6fnu9+en/58/Hz599dPm+T21x9Pf21v+H7BBRfaBor+x+WBqIv675NfL/IP58edfHVNZvnqcjyWD9G1OgOSy4EA1GU/AZq6Qk4wldJ8hVac98eAZArkCVDV1XQMyL5rPAD2CiEAs5JOgNJcJCqV6NKsUgnONwKoaNZcOECdxgmQ7NLEDzU4nS+dMnWc2cSnCRDNcYUC2nxCzK4xQO5X7AAji1Z6Qp2tFEJ/ch0QXQFP90sdGelV4eE351n0hE604TYXmD4mP984ucidJrO8EYvJx/66YSBXCE9NHvTxTph9TN0M8q9EP5IXfL9n9sk9Nezkmf4F053vD47kG8oXpk/tyfOnPQO7r4WxB3lh/KlO0b80Yuz9s/2Dd5UZqLo65/cg3GPLCbG5wkxae8gOSjfOuebCHGO5ucScYP89k6IMMx8B8nyC8UrYpU3j2UotOk9qlAHaHPet9QR+HSCYTKXwSBaMNCvM1KyyVH6zG4vlhtwTewW/dM0IEO6HOEeDNSPU08ZWRcCNeAgJAcoAxZX8JkB2Km9SyapqXS7NAigv1DCz8sIMSWZzHM/aGcxq1OCVPM8Rt5GPUSN3IgxAuOU44FLLvBLKUsktQohKzRouSAKJti+tdiIMQKQNkvWxYNatXJA2UgL2O83TrCGj2g+AncAAaYmHQAui5E6EHZdYK2xpK853UCMLO8G4CeQrtDvXgBXI7sBGGC2YZjZXEmoYADKfAQI7oWIbYyOJEC5pw4HBAEoqkIqrBVXK7ATFCaONMnkEEOCSUMcFP3qv3eTWCGI7AlwdaPusSwQZ46mrpZt9N31GblcfEXDDc2E2k4WIZ4C6FDk7gbMvKQICCTnNy8gd6fRpgAQ1yztlZs3Y5pqnK/N07r3IjkysyBlA4YTGHVewyFlAJB6jZbbSFnLMDw3JtwU1Sa7GJTDrlo1ZJtM+LOwTE48H6H/MrGxeMgBmMqVNnyp260aNyvMMJCYZi4QjgAfyRTrUvx1QMLnK6N+vA5ap2J40Qg2rWbAGMLKwecA0Bi7tsuf15kFw8tYb7UnD3Yfdmu0ytngBuirNZEZ/BGRqprb0AlUpmWyqqssJtInzvRnZ05VNcu9j0yvgfWz6H4xNCZu4bSvA92kVmrjRaR5eGhYVsafbQ8CyO7m1k4VVtxW5GzvEZf/DBgIbw2Bpl5oTdoeI9I6NtgI1YDsThDtu+cwSPN+Nvy+W3xfL//VimYXAWxfLDTNR4vpIXzsPffgHrrq0VKHw1bhgyTGTKi+bMleQyNvzzaYQM4EnooKdqiUiGpUR25cc6WxYBL/qZaGlv2RswewJ+yJm7yuwtPI0v5vGHgCtf9G9CkgZ92htFKGrgLgu05Xu0YwI0EbaBM1KTkhoVhHazy89ngY6okf8ZG3zLkvvAaewbQJnF3AlLfJE/9A70r0+xMkeV242jLDFpLXlCeVZZ+RxB2gDGCsHlpwzyrO957KpMn+xMWEUi508m6V8t/aQ971dPbLP8isMFmR+mWiVfnR76688bsvbHz9/UvLl/PBw+UXK/v/xJyj26PLzlfTxHw==);lineShape=1;strokeColor=#990000;" vertex="1" parent="1">
          <mxGeometry x="-256.3686082935201" y="817.8218211137805" width="133.5125506407322" height="92.89855934383354" as="geometry" />
        </mxCell>
        <mxCell id="Pv8cgQ9Iaqcld1MLqGOb-54" value="" style="shape=stencil(7VrLchw3DPyavbJI8H12nP9wleVIFUVyycrr7wNmi2OysdNbueXgm7wGhsSr0cDMJX749vjp68NF/Lf3t9dfH/58+vz+eIk/XUSeXh4f3p7e9a9L/HiJH768vj388vb6+8vn67+/fhqS46/fXv8YT/jrqter83Voif/7+kt0Nf/7w89X+eenl1U+ux43eXGtEfmEzw+udyIfXAjwfCHPb82VAvK1EPnspIO92RN5c5/kCvFPLS7IJq8/EHurdzFv8s0F8vySXEq7P/UJxEG5zfMPBZkhvK0QXNstCNk14tKUXYQQd+eJQmyuQYzF5UoU9L/brlBcDOcKolm9Z2n0zieiINPrh0J0nZwQqqu7l9QqT9waomv7CUlcFKKgcd0Dl4pr5ITq8l4JGslEvGrClosTciE1wO+Z7V0n8lqI+/NLdoWUmoZgv3/lMVMg2ZOiasiIvQok+31qdYlUTsQcat4VkhLJyV6ZLVLo0qoC+ewqeX51Zbe3VddJmXVX9gxtnUJjCK7sF1IwjiwA0ZU9Q7tMNL6tkBGse6Qma5Wl3QbtJ5UVTcMq04bFoEWOmB4KhXpJFSJ4qc5Anl0pwQn6C6mDAbcNFRjahaOlLldibu2I8CrPoKjOul181IkFCZFL5dnzZbbgJWidNEFxvqE8DQFitcoXkhQBe6zKJ5bXiCwqL6wXOAF7E0Uulc8oT6vAZFyiSBemNxZ5oUjqTVV6QnLE+PMeUrdu5Ek+R+xkQ57kZ5x9dJUn8S0m/+MkJGet25sLMQo1kNRELLIM0mYPJmQXWHPVHCqowHwkyRSNAiOjUBX7maJKJgpKyYBzKc4FphCQN+oJwhRsovJuoAoCJ8S7CpCqYbbpUwVgFZ2yKGuDjjzCiiGYvq+BI7mkCpCtSkRYg9LAJZhZEiUK2nASnBDnmHSmEMEGoQU0FCIqsBJVhRxQgfaobuiazNHwzEvQFXSWZCijCtUqsDiEyS9XBZZLYc72iw1saNHkC8atwrM1NlRgrVMVMDWEZ6vM3FxyyTMvqQ0m+YSwiwEz5oTEcSka5k9Rw5tcinQ0UgVMbz2BMaSOLXTYwCbmPp+3eon1h24WF8JJW58kdlFgLGyghqm4OzZAyxolysDY47Jm1AOPAzCBUXEcjGF9dL+mb5xAuNWN/iB0gzRK1CIfb1k3FFh6Kx/buUa7w8cOerd0IEYoYzIgUDjXSJO7LF2UoneaWL30abbojHnuvFYmwGzIZorRmuYKwYwlbBc5TgCSWGfXO3UrXKnz/hDNlQ7gOS2g3UvBe1py0sw03CkaS8FQK62sbDqJuFjpfJV3cwXANj2hICVTLl3YwCqzjy8KLF27meDynPFPJnQrn+gE92NC/zGhr/L/rwk9T864+pPcpyHF03zwJJ91ou8moRNTiMg6RwUwhWKwt1CcCxWbZj+WAmcnoJO0abIkPTBhrUr+jqObMLCWNjaXJi/Y6NnNAXymqjPLDnk/B/aznTzMCm3uMk/yFO6vPMTTusG5NvKYIalonr6e9biOqDwnjt57yKtFJOn85NNTvnTqf2/eGeU7OAfr++L5NIi4lfMdnAAczYGunNpklVM+lflG4qxxe3jLF3jZZwSWWHkn9ogTSsJYSqvN4KPvo9vpPmi3Qe5szSryodHPSZSTwYnQaDvOHvl+SNNvtxWKeYkdqEKJhrFQJ2neY+VQzljNAJI4cHV8txZpw1ccAZrMB9NmYuap/MDNAPKM8nbBfQKn+aNRFJQn/hzfreB9GOFSSg/+DHRQ0SED4iV0iFB56MbCCaM30BvprmIcgAnBpvYhj89nrXgYHEC+EgPGFAZfTNDdo8rDKjHRt/tjaCsgTyeghpvHNA88SyDwZ6IvUFS+mPvz50Or54z3P3+IdVde//j+1deXp+fn60dj6//jV2L60/ULs/jxHw==);lineShape=1;strokeColor=#990000;" vertex="1" parent="1">
          <mxGeometry x="-354.14888157960195" y="884.9184761851279" width="210.17208246961067" height="390.32572678368183" as="geometry" />
        </mxCell>
        <mxCell id="Pv8cgQ9Iaqcld1MLqGOb-55" value="" style="shape=stencil(7VrNchQ9DHyavapsy79nPngPqghki3wJFcLf29OuxZOxvNMpTlxyC4t6xpKsVku7J33z9fb9l5tTcF+fHh8+3/w4f3i6Pel/pxDO97c3j+cn/HXStyd98/Hh8ebT48O3+w+Xf3953y37X/8/fO9P+HnBOSmxg4L7dfmgBYmXT95d7O/O9zv7KMlP9rVKCsf2VVyb7ZN4f2zvVUqeAKVJIgfyVUqdAUEqOVHwkuY35MIBUfLsQ/YSlQCKFDcBErxKxwB14tIEiIgSA3jJYQJoluoIIIjOeUZmUqOAPEcJcQskSh2gE8BHaSRKAIQZ0Eacj3wOc6KjuEKDGmYPVAJ7vhv+bR5LJjcV9nHOspdGLirsq7VXFh/893zt3Esp9mrstVL7Zp/PKlNVmjf2jp0nSo3Wnt3pJMWe/08Cr9vnQTzP9pld0CK+mPhTf4vkaOwL87fY+KDm2Pmr1Nk+iyf20Q3S2c6jEkkBRB3P2w6kIyXXAdnWPGLMUhyb5d5YJJEcp2CJLlVRBlBLpZ2sSRUnkPX8hpJGy7oOSBLma1E9vUcAlPkNaGmN5CEhr6YHNtpwOmB2uiH3LErJUkvztNYA0GABiZBFD+scJegEx8K6sAUAypxWcdkCIjtSsGHtAHY1vO2B/UgsSs4qhe40K9EmbclDZhXXLMcD4ElTAMCZPOCQDFClmdu6HfIIYKRFRSpJ4gCoRoBtou/Q6dmHAqZimd5c3EigUqdxNdSwRpTCSrTY3gleYootL/IIFcK6A0SpzlFKXAiXvAAqLSDoZOv0Fobr0twPYb0B8iDP6wAd5L4ljkseEKPOYYVXhWS6QsXOgE7GJEqYPiy3buR5FYByqSsvkSOhIOOcB3wSiNN4XltKNJPb2qIVGp3uidMt27B2EiAV19Azk/WBzRcNNLNQpWNOL0qgKX2Dd5t63BBxkOHRK0zJtSSZpXoRWAhcZqkutiD6J+wNaUk1RCB7Q7RiA4dkQwzCbtgYbyikBfXENgtw7EhQ/dFGiRET+oftipGzQLP03ZRyZVvGYYSBabhntbOXMwywLTl2FcSGK7joqgWwPQmuhi0IR9UJ0qQLbbC+i5uTF+1QmNNtkMQurPQuNTshInFM6QJgRj6EIfAjeZO4PETakdOWNQqdEv8agI5iMr2jqqO26JaSY3Rc3cKuaDKstddl5ChUV5ZixQMOGUgPwpC0irjCAGqpr6BEGMBZ5ZoTLbkuRmbqy552asidOEfpJdVX7fIzNypPIBPjolwLSRwmudJsWAOfFY3E6uqbSd3X4XKIOOb063A5xMG/HS7bGPT2cp0kLi5DDQaCyn0w17tTG5tGqwVguGTb/YgONV++hLgxH1TqHFa8k37H4uzIoYWvWsEa8xtClMp2j2p34z5Spfu6TH9dpv/zZTrzd/kWMPHz12UiHnR8aL9+u8UuRB2z6ebACze0Dgm4ASpt5D1EcwrwCdPOuoiRyNf7un2Bt9tZ0VsX7ISRQRMEgKibBgKZ6AmvhGJbVKd3kjgQoZ/DWnml4eK3RToztsZFsAtTtEVyJO+viBF2pDJKazdVsR6YJZrnZ3r10iK/Mh0kN1W9s6dkbWunryTI88No2PvnU3u37nnY7mns73b2bKPn7Dfbfbgn5wHVOmvPFuLXNmFs/+eG3NjvUwhTuGXppLSM//Y3IS/b44/nH6B8PN/dXX6/sv9/+4MVfHT5sYu+/Q0=);lineShape=1;strokeColor=#990000;" vertex="1" parent="1">
          <mxGeometry x="-518.4511279423241" y="1100.4704530108634" width="79.4489132143057" height="108.91884757720163" as="geometry" />
        </mxCell>
        <mxCell id="Pv8cgQ9Iaqcld1MLqGOb-56" value="" style="shape=stencil(7VrLbhw3EPyavRLN5vtsO/9hwHIkRJEMWXn9fZpecDQsztQ6QC4GfFuNuoZkd/WTcwnvvt5//HJ3Ufn6+vL8291fD59e7y/h/UX14en+7uXh1X5dwodLePf5+eXu15fnP54+Xf/+8rFL9l+/P//Z3/D3FefVSe0olX+uT9Tl8u3BL1f5x4envby4kif54JKeyzcX59dHl+O5eHVBJ/HsfDgXL7j56pRsJrkWJvF+GjmXj67EWT64nM7lwzjbJm8bJPLqSpl1b/uh8jJrx3bYyHm9S/N5uznI+/3Q3mbb6Hxl8jKfNzSqfz+0sZEhukDY4F2Y9x+bS43Jt3k/KbpK9h+c+Jlt4iQzPoTZXjk5T/Zj5J31WcR5yn7QfzH7cmdMszOWxhUanILDBBc8AeTxvg2QXWMUFdRpE6fEhbtSZQaYWYhSjcM6s6IlF5iV43DyDZBdJVqKgnZuZSj6GJCHWXeASgDJmFoRwCJRsn8rnqGRM+QwAudOS4kBjHwJ7aDEDkVdBbXKCPbHANP6fIbKw2OVwc0dWyPzn23HO3/IZEtGZgEHSq4QtlZLULCC0hBgOkkQYyrlUlMMehZklBzazJRnLmV1kUSNFkeG34c9oiVjDkSNZGoghrMttXkF4y9LDHZoMFzKNHKbWltCQGYrCBrOAJF4nAF8RkAggNoOtsQCmQEKqDWNJ2cAqC8Sj3wGSLClOEqgU4BHAPW4hiVGCjQ/9DMIAljU6FpaVhBCbwNUsLSO4HlmaVkAbEttiUsGYGm3B4G0ALg/BKCGd5XkafNpEVyBxqW02MG0xFYoWOylQGvzVhcHCjxqmOFASzxleZHl1MVlduqGsTK1kYnPAAKxUnk0rqPC3gDRKdcrNAE507zbClbRllFYFLBKIc6WK7wk65XCzG+rQ5nL9QKsIYCVM22rm3d5l2rJ4pZHAE2jEfndMztfAWsHcxGmpcXlDECjQEBLF96e9MyuCFAOSLCCvYIdel1BaVl5cIYboW/VkueHXu3gadPXLe0XAAuuW9O8A7CZxwFbt078e/1BaSQ78DgLrnxLkHcNUFlwTUsQiC5xF9WlNGbNsQFkcdEbdWhZAKxaNwCq9SZAFkBkZwijMdwfmle6OaNaI2OrueicgbrhWJgJSyALI7H+TwDzhxmQC3fRNPxrl7KoP1hGgxUCT7sZS4HsRwI4S4oRtmT1OwesLYowF81IDSvvC/eHg46DWxrrHz79tCoRDm0FE5sXNX+wJWq4n13TN8DPrumH6Jr8qCG/t6fRkQL3Pc2NDLQAaF+W8ELDqBGYT2e8c+iDDebTGcehN4bYvRKYDWexlVp6SbvW0tAVFKeblh8qj0t+7VDIlmrF6G05jtWtNS+FbhlOezZKhOlm5VVlFTRcTWOMfDwOLVhVmg8Ku+wKeNvV+UsAeelFb0zKLSvjDLhQ8vWxNGyp0VGiOSS0A73rZ7P45Q5l1/WfTu8Vl2BDgRCxJLMmvhF+a8N7uF5+EDXp0gT1loJNNhrStU9I2T1NGvcNG5nqmLYfAxSLb6MrHQJjkViFpqyCF7+FVz8Js4M1ZSyHhiWK5UHeYxug81iYZEl9HTAnWvks2S1yYgtyqN+FEtIto67QaGcio3/c5AMt6mUweMhrvaUf+G4gOk/04/ECq3Oc+Qx6gFGcjTLCclfvac6Jw8U3Po9O7jg0LqXF8IcT9sNMgn8lUVGZflRjJ4PPQcUhL2MscyzvUTlCuWPyDd/PQm7/iCShPOGOV0x9/F7cK4Z0oYWgyccA8mxY6Jc6UKjv+m2a82Yv1mF3+QTybEjQ5T3Isyqzn3d+v3Jf1DGIf5Nnk3mTVwX5xOX/20dFN+Xtx9sXTJ8fHh+vH0Dt/49fPNmj69dS4cO/);lineShape=1;strokeColor=#990000;" vertex="1" parent="1">
          <mxGeometry x="-138.2952859419779" y="1453.6832775400408" width="416.57461879308966" height="194.95615822371747" as="geometry" />
        </mxCell>
        <mxCell id="Pv8cgQ9Iaqcld1MLqGOb-57" value="" style="shape=stencil(lVnbcls3DPwavWJAgtfnJP0Pz8SpNXXsjOO2yd9nT1Sqh6DOevxmy4SJy2KxoE724fvD3bf7U9Tvry/Pf93/e/78+nCyj6cYz08P9y/nV/x0sk8n+/Dl+eX+z5fnv58+X37/dred3H76+vzP9h9+XOxUtG5GUX9ePuhFSvr9yR+X84/np935ICHN54NoOT5v47+N8y2L1ePzTUKcztcuKRJ/koQ+G0Tp7dgAEefZo5Klk4hjFZ1dynDSSMhRUp4NVCJxyYrYbJAiLYI16WUysEyrkNSndUs0uQEGcU4rKt8DcalLm28IRSoDRpXokCSVAMOSqM5Jks7ON8kuqePCI3+KCyBJ6e8JIKLwzKMifc6pXbN8ZJDbbNAkKTVwUE1ZGoNqljgnNUfJzCVUYQ4azdBY0HFU9dpuSYw0tIXR71eDRusAiumOMhAVCXpD8tw9pUsgaQVyijOIg0RuGzSpc6VzlcAYACwWZgPj0Og+SzlIIUGntXBBMmlocFZxLJYlkEpvf3ZZshHVbYPq+wF1qKQOQE5t3uC/Jr9tsJBSqRRLNY122Q2HTAqH6ZTVB81IoKUlSwA8cambp27kTYlLPUmeb8gY6aQOmPjaFwPSor1KNu8Sa6COfnBYaoPNbxt0KY6XOu3poOrHQwGASSFwRZ9bDk0dCJhgYE442MjDUdRurJcrkRzlVRdpwsRPz37GwaAyl8ACK75ZlqJnAcTA1BLkoHfJqHDoKi35OhSGDfXYQAcxPbbd4NDXOTTCyMkOrsagAY9nYkJDGMtS8rIbLVffqHTzBvkNLC03NMYzCHGJgaIV/VB8liq7oftBjRZlU/FWU4e3fHJpAvqUR12dT1yebNznXILaYPh+r0Gro8H2Y5GAqZmHaw0Dj7eHVvMtVxOl42q+5Wqh1AfJZs6lRoXoNjXnGdSUrkDAmktrwxwl0Mjm+R43BGagY8zugmaDN6HSToiqJGaQ/FgE+JSAD6qvO/rWIYmO9H1y/RClMYMwlqqrAWiDoHWTug4agQYNuR4XeBvT92WZipHSNxb25KivUizFhQSgjRmTYVXNM1qxZ7EYbHlmwSYXWaWXhX3bFckIgkuucNhG2UMLDNrcD9h32XK53eDQOj443PzmC5SSTFK/vOpoj9vnl6elSgNGiXT2PwQqNLbdeR5wofB+zp5iUANG9Rtq5n5GkinF2JB3V1gUvvYt6mojHf7mUN2eaEMzHjGG7+cwhMHRNt0cxXS6AYU2HpJ2RMykTDAxNxuMdtuyTLdGn9MWbQUBaKRs2T8tQRQ0NtxGI17PN7pUZt850EGsZskPqs4rsLyw9E6Hgg2q2p2nb7JewOyU38ErdNfFIcIVYby/7s4z9awecTjPVgz1UhgFY89oOtblHSDYY+aig3HeSH7e+6r/9nn88P9XCF/Oj4+XbyD2f/dfOeCjy9cV9ukX);lineShape=1;strokeColor=#990000;" vertex="1" parent="1">
          <mxGeometry x="374.069051750962" y="1501.1937743041453" width="91.28416308897008" height="93.72543846713674" as="geometry" />
        </mxCell>
        <mxCell id="Pv8cgQ9Iaqcld1MLqGOb-58" value="" style="shape=stencil(lVfLctswDPwaXTEkwOc5Tf8jM3FqTV0747ht8veFqkoVIWkzvskyVgR28WInD2/Hp9dDx+7tdr18P/zun2/HTr50zP35eLj2N33q5LGTh5fL9fDtevl5fh5/vz4NlsPTj8uv4QvvI65W4jSg2H2Mb4RC/fvi62h/6s8Le+8cOdcAvKMa9hF6gm9P8IXEA0C2AE7EAgB+cnmOIZHkfUARSm0MIdPwcw+QE+XWpVgmGjYBqVApDUDfpAgATNwC9MwKWIqZYgvQqBCtoVBsY6jKUgIAdYBbgJ4JaA08eTwDNGggnMr0L3NmQKUAcokrpWQBiCX2VNwKUEB+B2JvAQmwlCllG3MFJDGVbEmtoOAciREhUQGp6ojN9+OUKDv+ZGntAwXAaKZgFNCGAfzxstJYjwQAlSx6CxAUQZ3SeAFAWaRpl6oFFKCBJnb2NuiEAKqRt6xm4NJQnNHKVkG/0IaVDa3aNgFLIdgmqYkqoIWJ9u1VJTDIDOHJgQUgA5ZYXWpzbzFdtpMpbdR/QbNkpXSFo0SrP6xIArrp6HNWBTRIVsNzkBlW/332PpJvAyg8NYRtDXhqh4u5gySQVXnqZHOo2lYdUkcXWjEC2xam5ZQAqWE1RkRZQirPSTBvGBEPWw26zSPdYRyYClHs3PlkS4rBNgC8h0UVuvWI4X6hnJtq1skIAkiOfDb2Htlr5bQBu2nH2luQajb2DOzzai7jTpGrXfGwfQlU5A5/ysb3UbzDwAh38KlTPpsEgnoNm1bLD86He/f+z+314f8l46U/ncY7yvJ/eynRV+OFRh7/AA==);lineShape=1;strokeColor=#990000;" vertex="1" parent="1">
          <mxGeometry x="399.0204742818828" y="1545.5494601729556" width="12.54360719315855" height="79.78390109598422" as="geometry" />
        </mxCell>
        <mxCell id="Pv8cgQ9Iaqcld1MLqGOb-59" value="" style="shape=stencil(7VrJchtHDP0aXlGN3vvsOP/hKssRK4rkkpXt74MuVg9nHsin0i0H3yQSj43G8rDMnNKnH49fvj+cYvjx9vry+8Pf569vj6f0yynG8/Pjw+v5zf46pc+n9Onby+vDb68vfz5/vfz//cuUnH/98fLX/IV/LrgoNU1QDP9ePgjSLx/8ehF/Oj/vxJtoAfFc7otrltJBPgQiPyRWkI/9vryp3/Ugr6KNyGcZ4SAfpRB9YpGRD/JZUiXyVfJRvkrlv9+P9jEDEHva8floH42i3EDhqJAWicTB2qW1I6BLHARQRI8qTR8oAah0ACRpRKUhegxRM2rgMQo+bjLiffnqLjAkE/ki7ZgDKUjJTJ8Yj/IqjVk0Szv6LEWeBZazEQGJnBA7po0BMjkhNakeQAI7NwkNAYGcUCxzFK3ErFrLctLODY2o1JKEgX5mcdccGZndGKCnpfEu8iigrlzchXYn/GUAyM64fXIb0NBKE0Cs1LtoRkBlJ1gsDQcgHNmHVKdSJdE6wiKg/R0ISxqgOyt1EktDJSkCBjtBF63vPB2IlQzQIgIiYcl5QkFA4neABDJA5ioFByjMD3m1BrsEquwOBaM1JUkk+EaVAtS6kf9tQEOzZqsNzHFd6jG8S5JBeGmM1eBsFT3SEzRsLc6GGKtq3zuiHeO7laXlvUuUI6BbG8bMVJGYepbIHJGwTzIiCTxHwdWW5szV9nsQ3/YTg/FMXl9vAKuKDBBXG7IB0krz23xv7A6ATO/QMtbdwZsrCwQwq3lGWWtifqgIYOFa2grODWApQoIvj1XHN0CnrUB2PGPxy/q9mfMdAYU1uRULhAE6AwQ06y4J77R82ak0iOOKpPIRjTJW3ZnjRJ8kPTgTMZsiT5o8a9KTi+whgUWFxCNfWFB0Il9cqnV637pq306ezUlt0dtOvrDcR5afv88qFZaRsXHBHZKXUp2BSNbY0BOq8wAHaEMAYy9TCUdJiyE26QVsPsdmhjtGiu4AFhR9Uds+yVhHj43klCdJVm4ENfNBXiG5vy/RP7mCM2jQJazK02P096snUmKfLMEFKZtrM7YVM6ipPbGa9UXEd5LS68OTMhYnT/z1UXkrA+pYgl3Ybhz9jdkYrNhHzWJJTkh9lYkdgHWP1r4mOKHR1s7a1wxerjSLy8D1hQECIRYbtGEMfr/LaQDIS8l7kzlMU9apMT+0hqP82BaBt0Mp4N7Spp/BAMnFUqBDqk3mAOic4O1rWDv1d2dOcJy1xKzxMiOCH8wMbC1kbhrHfHhvECnohznqsJkzY+M1pyk2GzlSLZl2dhYIUJnnRMgGPMVeZ86cfLsAvDQ7XAKYgQDriEF5yWYjYA3jQrbx/LlH2gA/90j/+z2SxdJw4c14ySZ5v3hiKrWKwTdX9KQo1ram6v32mahUOjbDKdJuO3cs7MYa7MmNtQ7qaIbNMGbE4k5gRVGHu7RVDDaTRMyHqRJ98gG7hcmURD7itsOM2gnJuE2beY39vmsQE9+b6Q3iZguh6AimUYLJTr5Qfqlonzlz8BEPH21tq5LbANeJaecP8ypO2lroonA+X/RPMPkjYdyN8AeYA4O00l5yKoSPeNl2ym4MY2Fcheu2vOuReIwO9LHSFCsrIK/ibIua11rpqjzr/ROOzFw8Ygk3ZdhjSIxOpfOsLgq/irNXFXS1TFdxttIJuE1QOswGfLFBKZMElyb0ia5faNLNgEUUXpW5SbHND3QW+uArIu+K2x/Xt1G+nZ+eLi+z7L/Ht1fso8ubL+nzfw==);lineShape=1;strokeColor=#990000;" vertex="1" parent="1">
          <mxGeometry x="670.5313560443892" y="854.9270953129364" width="87.5771585255302" height="481.36181070117766" as="geometry" />
        </mxCell>
        <mxCell id="Pv8cgQ9Iaqcld1MLqGOb-72" value="&lt;span style=&quot;font-size: 32px;&quot;&gt;&lt;span style=&quot;white-space: pre;&quot;&gt;&#x9;&lt;/span&gt;&lt;span style=&quot;white-space: pre;&quot;&gt;&#x9;&lt;/span&gt;After Connecting and rotating the required Number of&amp;nbsp;&lt;/span&gt;&lt;div&gt;&lt;span style=&quot;font-size: 32px;&quot;&gt;Times we have to remove the circular Connection&amp;nbsp;&lt;/span&gt;&lt;/div&gt;" style="text;html=1;align=center;verticalAlign=middle;resizable=0;points=[];autosize=1;strokeColor=none;fillColor=none;" vertex="1" parent="1">
          <mxGeometry x="868.0000000000001" y="1021.55" width="923" height="89" as="geometry" />
        </mxCell>
        <mxCell id="Pv8cgQ9Iaqcld1MLqGOb-73" value="&lt;font style=&quot;font-size: 32px;&quot;&gt;Also Remember to handle the edge Cases&amp;nbsp;&lt;/font&gt;" style="text;html=1;align=center;verticalAlign=middle;resizable=0;points=[];autosize=1;strokeColor=none;fillColor=none;" vertex="1" parent="1">
          <mxGeometry x="1032" y="1127" width="630" height="50" as="geometry" />
        </mxCell>
        <mxCell id="Pv8cgQ9Iaqcld1MLqGOb-74" value="&lt;font style=&quot;font-size: 32px;&quot;&gt;\For new new head Shift the head by k=k%length&lt;/font&gt;&lt;div&gt;&lt;span style=&quot;font-size: 32px;&quot;&gt;stepsForward = length -k --&amp;gt; new head&amp;nbsp;&lt;/span&gt;&lt;/div&gt;" style="text;html=1;align=center;verticalAlign=middle;resizable=0;points=[];autosize=1;strokeColor=none;fillColor=none;" vertex="1" parent="1">
          <mxGeometry x="802" y="1254" width="714" height="89" as="geometry" />
        </mxCell>
      </root>
    </mxGraphModel>
  </diagram>
</mxfile>
